<svg width="515" height="177" viewBox="0 0 515 177" fill="none" xmlns="http://www.w3.org/2000/svg">
<path fill-rule="evenodd" clip-rule="evenodd" d="M48.1228 0C50.5236 1.40647e-06 52.9705 0.0987298 55.4599 0.290467C58.0355 0.447741 60.5914 0.748604 63.1264 1.19502C63.1331 1.19618 63.1418 1.19543 63.1485 1.1966C63.1543 1.1976 63.1601 1.19874 63.1658 1.19975C65.4348 1.59414 67.6632 2.08727 69.8502 2.6805L70.7898 2.94255C73.1391 3.61469 75.4191 4.44323 77.6192 5.43678L78.5573 5.87248L78.9719 6.08244C80.0339 6.64188 80.9857 7.34953 81.8096 8.17095L108.691 5.78408L109.283 5.74461C113.404 5.58347 117.172 7.57371 119.422 10.7709C121.002 9.99477 122.773 9.56018 124.631 9.56014H149.454C150.91 9.56019 152.315 9.82841 153.616 10.3179C155.556 5.8484 160.133 2.88652 165.222 3.21092L165.527 3.2346L196.97 6.03823C200.269 6.33262 203.294 7.99724 205.311 10.6273C205.619 11.0285 205.896 11.4486 206.147 11.8807C210.091 8.8405 214.475 6.49261 219.227 4.81638L219.265 4.80375C224.451 2.99499 229.948 2.16745 235.637 2.16745C240.456 2.1675 245.149 2.8385 249.6 4.33964C253.857 5.72193 257.806 7.73265 261.339 10.4284C264.803 13.0002 267.789 16.0773 270.276 19.6112C270.287 19.6271 270.299 19.6427 270.311 19.6586C270.325 19.6782 270.34 19.6974 270.353 19.717C270.816 20.3678 271.261 21.0307 271.689 21.7029C274.393 18.1166 277.507 14.925 281.023 12.1586C285.06 8.98277 289.565 6.54345 294.461 4.81638L294.501 4.80375C299.686 2.9951 305.182 2.16747 310.871 2.16745C315.69 2.16748 320.384 2.83831 324.836 4.33964C324.881 4.35431 324.926 4.3706 324.971 4.38542C324.987 4.39072 325.003 4.39589 325.019 4.4012C329.205 5.78138 333.091 7.77147 336.573 10.4284C337.622 11.2075 338.628 12.0332 339.589 12.9037C341.067 11.0364 343.108 9.61444 345.499 8.90344C351.448 7.13494 357.425 5.80139 363.425 4.90952C369.461 4.01242 375.645 3.56927 381.968 3.56927C385.906 3.56928 389.832 3.90288 393.742 4.5638C397.758 5.20077 401.647 6.23328 405.389 7.67842C408.148 8.73216 410.785 9.99854 413.293 11.4766C414.557 10.7987 415.949 10.3469 417.41 10.1632L449.872 6.08401L450.382 6.03034C455.252 5.6303 459.846 8.27478 461.976 12.6274C464.084 8.3197 468.606 5.67816 473.442 6.02087L503.995 8.18832C508.119 8.481 511.794 10.9066 513.687 14.5881C515.58 18.2698 515.417 22.6746 513.258 26.2067L485.168 72.1699L485.972 104.746L485.975 105.046C485.974 108.134 484.768 111.106 482.609 113.321L482.605 113.325C484.34 114.064 486.01 114.959 487.594 116.024C487.663 116.069 487.731 116.114 487.799 116.16C489.839 117.527 491.67 119.176 493.243 121.098L493.564 121.499L493.888 121.92C495.445 123.997 496.62 126.263 497.457 128.631H497.46L497.487 128.71C497.495 128.734 497.504 128.759 497.512 128.783C498.529 131.661 498.945 134.595 498.945 137.444L498.939 138.021C498.884 140.909 498.412 143.916 497.276 146.859C496.21 149.62 494.676 152.192 492.647 154.462C490.767 156.569 488.59 158.307 486.194 159.682C486.153 159.706 486.11 159.73 486.068 159.754C484.029 160.895 481.89 161.812 479.677 162.522L479.672 162.524V163.395L479.669 163.729C479.493 170.69 473.801 176.278 466.806 176.279H453.903C449.587 176.278 445.77 174.149 443.436 170.884C441.102 174.149 437.285 176.279 432.97 176.279H420.068C417.611 176.279 415.315 175.588 413.363 174.392L407.315 175.175C405.106 175.461 402.942 175.165 400.987 174.398C399.332 175.046 397.525 175.361 395.66 175.265L395.055 175.219L380.934 173.833C378.414 173.586 376.056 172.599 374.125 171.044C372.303 172.131 370.391 173.039 368.403 173.77C366.246 174.563 364.033 175.165 361.772 175.574C361.722 175.583 361.673 175.593 361.624 175.601C359.469 175.965 357.291 176.168 355.109 176.168C351.219 176.168 347.361 175.547 343.659 174.168L342.921 173.882C342.15 173.572 341.393 173.231 340.651 172.864C338.944 173.721 337.025 174.211 334.998 174.226L334.673 174.225L318.724 173.949C318.473 173.944 318.222 173.931 317.973 173.912C316.978 174.209 315.932 174.391 314.85 174.438L300.729 175.047C299.409 175.104 298.103 174.953 296.851 174.618L285.587 175.208C283.788 175.302 282.011 175.012 280.359 174.386L272.343 175.807C269.785 176.259 267.209 175.918 264.921 174.91C263.907 175.212 262.84 175.395 261.738 175.437L250.22 175.881C247.851 175.972 245.529 175.403 243.493 174.274L237.879 175.374C235.532 175.834 233.19 175.621 231.068 174.858C229.85 175.24 228.555 175.447 227.214 175.447H215.308C213.431 175.447 211.598 175.032 209.926 174.261L202.86 175.175C200.651 175.46 198.487 175.165 196.532 174.398C194.877 175.046 193.069 175.361 191.205 175.265L190.599 175.219L176.479 173.833C174.706 173.659 173.014 173.117 171.494 172.272C169.15 174.739 165.842 176.278 162.174 176.279H149.27C142.164 176.278 136.404 170.511 136.404 163.395L136.406 161.752C135.903 166.002 133.32 169.737 129.5 171.699C128.195 172.369 126.854 172.932 125.502 173.402C125.45 173.421 125.397 173.438 125.345 173.456C124.189 173.842 123.013 174.182 121.821 174.481C121.74 174.501 121.657 174.522 121.575 174.54C120.275 174.839 118.962 175.071 117.639 175.237C116.275 175.407 114.891 175.502 113.496 175.502C109.771 175.502 106.093 174.848 102.578 173.453L101.879 173.164C100.144 172.422 98.4928 171.526 96.9377 170.479C94.7199 174.382 90.5313 177 85.7509 177H72.6264C69.3758 177 66.2546 175.767 63.8816 173.565C63.6004 173.61 63.3158 173.647 63.0287 173.674L48.5201 175.006C46.7441 175.169 45.0015 174.958 43.3807 174.432C41.8395 175.084 40.1477 175.447 38.3753 175.447H25.9146C22.446 175.446 19.1245 174.044 16.7031 171.557C14.2817 169.07 12.9654 165.709 13.0535 162.237L14.0498 122.921L14.0624 122.605C14.2241 119.339 15.5984 116.39 17.7483 114.206C17.0603 113.956 16.3765 113.705 15.6988 113.449L13.7503 112.698L13.5122 112.602C11.6805 111.835 9.97067 111.094 8.38859 110.379L6.84834 109.673C2.25526 107.534 -0.470148 102.705 0.0677897 97.6615L2.86766 71.4027L2.91338 71.027C3.23258 68.7295 4.21373 66.6095 5.69118 64.9004C4.61354 63.1482 3.68157 61.3042 2.89446 59.3783L2.56813 58.5527L2.54921 58.5022C0.812135 53.905 0 49.071 0 44.1083L0.00472952 43.4895C0.0853717 37.0889 1.42141 30.9479 4.26602 25.3116L4.28809 25.2674C7.03741 19.8762 10.7408 15.207 15.382 11.3803C19.936 7.61818 25.0952 4.78824 30.756 2.86204C36.3673 0.952784 42.1743 7.23152e-05 48.1228 0ZM135.272 111.348C134.119 112.017 132.846 112.492 131.498 112.742C134.385 114.333 136.49 116.936 137.495 119.953C138.138 118.233 139.14 116.678 140.421 115.386C138.361 114.548 136.572 113.148 135.272 111.348ZM428.641 68.5391C427.34 70.7784 425.823 72.8835 424.082 74.8331C421.079 78.1986 417.573 81.0079 413.639 83.2677C413.601 83.2895 413.562 83.311 413.524 83.3324C409.916 85.351 406.09 86.9986 402.069 88.2893C402.039 88.2989 402.008 88.3082 401.977 88.3177C398.089 89.5312 394.081 90.4305 389.964 91.0266C389.918 91.0332 389.872 91.0394 389.826 91.0455C389.796 91.0494 389.767 91.0527 389.737 91.0566V107.207L389.733 107.512C389.692 109.107 389.336 110.623 388.727 112.002C389.936 111.552 391.225 111.28 392.561 111.212L407.957 110.436L408.514 110.42C411.537 110.398 414.383 111.439 416.636 113.241C416.651 113.236 416.667 113.231 416.683 113.227C419.608 112.357 422.564 111.697 425.545 111.253C427.35 110.985 429.173 110.799 431.012 110.693C430.039 108.898 429.533 106.865 429.577 104.786L430.279 71.8637L428.641 68.5391ZM269.054 102.08C268.713 105.307 267.067 108.254 264.498 110.232C264.106 110.534 263.707 110.824 263.305 111.11L264.23 111.162C265.084 111.21 265.926 111.342 266.742 111.553C268.781 110.921 270.983 110.791 273.156 111.242L273.643 111.353L279.174 112.725C280.107 112.364 281.093 112.11 282.12 111.975C281.882 111.817 281.644 111.657 281.408 111.495L280.678 110.984L280.515 110.864C276.807 108.107 273.546 104.867 270.752 101.174C270.27 100.536 269.806 99.886 269.354 99.2291L269.054 102.08ZM80.9599 101.341C79.128 103.669 77.052 105.801 74.7232 107.711C72.9987 109.138 71.1779 110.42 69.2732 111.566C69.8826 111.85 70.4691 112.183 71.0294 112.561L77.5593 111.741C79.7386 111.467 81.864 111.759 83.7865 112.502C84.53 112.215 85.3023 111.999 86.093 111.853C83.914 110.22 82.2976 107.843 81.6504 105.042L81.54 104.503L80.9599 101.341ZM192.692 105.668C192.335 107.721 191.463 109.575 190.223 111.105L203.502 110.436L204.06 110.42C204.279 110.418 204.497 110.425 204.714 110.434C201.24 107.772 198.169 104.678 195.518 101.174C194.947 100.42 194.401 99.6489 193.872 98.8676L192.692 105.668Z" fill="#1F2F26"/>
<path d="M101.702 126.353L86.4731 147.618L85.7542 164.952H72.6298L72.9609 147.729L65.0421 127.184L79.1644 125.412L81.3794 137.373L88.4122 125.412L101.702 126.353Z" fill="url(#paint0_linear_94_27)"/>
<path fill-rule="evenodd" clip-rule="evenodd" d="M163.947 123.252C165.369 123.252 166.79 123.371 168.212 123.611C169.633 123.833 170.99 124.193 172.282 124.691C173.593 125.19 174.801 125.819 175.908 126.575C177.034 127.314 178.005 128.199 178.817 129.233C179.629 130.267 180.265 131.448 180.726 132.777C181.206 134.088 181.447 135.564 181.447 137.207C181.447 138.998 181.179 140.585 180.644 141.97C180.109 143.354 179.371 144.564 178.429 145.597C177.506 146.631 176.416 147.507 175.161 148.227C173.906 148.947 172.559 149.537 171.119 149.999C169.698 150.442 168.221 150.775 166.689 150.997C165.157 151.2 163.652 151.309 162.175 151.328V164.232H149.272C149.272 160.004 149.282 155.796 149.3 151.605C149.318 147.415 149.347 143.188 149.384 138.924C149.42 136.672 149.429 134.419 149.41 132.167C149.392 129.915 149.438 127.645 149.549 125.357C151.912 124.655 154.274 124.129 156.637 123.779C159 123.428 161.437 123.252 163.947 123.252ZM165.221 134.327C164.833 134.327 164.427 134.365 164.002 134.439C163.596 134.494 163.208 134.567 162.839 134.66L162.508 142.745C162.766 142.782 163.015 142.801 163.255 142.801H164.002C164.667 142.801 165.304 142.689 165.913 142.468C166.541 142.246 167.095 141.933 167.575 141.527C168.055 141.102 168.433 140.613 168.71 140.059C169.005 139.487 169.153 138.85 169.153 138.148C169.153 136.949 168.783 136.016 168.045 135.352C167.325 134.669 166.384 134.327 165.221 134.327Z" fill="url(#paint1_linear_94_27)"/>
<path fill-rule="evenodd" clip-rule="evenodd" d="M434.745 124.36C436.166 124.36 437.588 124.48 439.01 124.72C440.431 124.941 441.787 125.301 443.079 125.8C444.389 126.298 445.599 126.925 446.706 127.682C447.832 128.42 448.801 129.306 449.613 130.34C450.425 131.373 451.063 132.555 451.524 133.884C452.004 135.213 452.244 136.691 452.244 138.315C452.244 140.105 451.977 141.692 451.442 143.077C450.907 144.461 450.168 145.68 449.227 146.732C448.304 147.766 447.214 148.642 445.959 149.362C444.704 150.063 443.356 150.646 441.917 151.107C440.496 151.55 439.019 151.882 437.487 152.104C435.955 152.307 434.45 152.418 432.973 152.436V164.232H420.07V158.085C420.088 156.091 420.098 154.115 420.098 152.159C420.116 150.184 420.125 148.199 420.125 146.206C420.143 144.212 420.161 142.153 420.18 140.031C420.217 137.779 420.227 135.527 420.208 133.275C420.19 131.023 420.236 128.752 420.347 126.463C422.71 125.762 425.072 125.236 427.435 124.885C429.798 124.534 432.235 124.36 434.745 124.36ZM436.019 135.435C435.631 135.435 435.225 135.472 434.8 135.546C434.394 135.601 434.006 135.676 433.637 135.768L433.306 143.852C433.564 143.889 433.813 143.907 434.053 143.907H434.8C435.465 143.907 436.102 143.798 436.711 143.576C437.339 143.355 437.893 143.04 438.373 142.634C438.852 142.209 439.231 141.721 439.508 141.167C439.803 140.595 439.951 139.958 439.951 139.257C439.951 138.057 439.581 137.124 438.843 136.46C438.123 135.777 437.182 135.435 436.019 135.435Z" fill="url(#paint2_linear_94_27)"/>
<path fill-rule="evenodd" clip-rule="evenodd" d="M468.58 124.36C470.001 124.36 471.423 124.48 472.845 124.72C474.266 124.941 475.623 125.301 476.915 125.8C478.226 126.298 479.435 126.925 480.543 127.682C481.669 128.42 482.638 129.306 483.45 130.34C484.262 131.374 484.899 132.555 485.361 133.884C485.84 135.213 486.081 136.691 486.081 138.315C486.081 140.105 485.812 141.692 485.277 143.077C484.742 144.461 484.003 145.68 483.062 146.732C482.139 147.766 481.05 148.642 479.795 149.362C478.54 150.063 477.192 150.646 475.752 151.107C474.331 151.55 472.854 151.882 471.322 152.104C469.79 152.307 468.285 152.418 466.808 152.436V164.232H453.906V158.085C453.925 156.091 453.933 154.115 453.933 152.159C453.951 150.184 453.961 148.199 453.961 146.206C453.98 144.212 453.998 142.153 454.016 140.031C454.053 137.779 454.063 135.527 454.045 133.275C454.026 131.023 454.071 128.752 454.182 126.463C456.545 125.762 458.909 125.236 461.272 124.885C463.634 124.535 466.07 124.36 468.58 124.36ZM469.854 135.435C469.467 135.435 469.061 135.472 468.637 135.546C468.231 135.601 467.843 135.676 467.473 135.768L467.141 143.852C467.399 143.889 467.648 143.907 467.888 143.907H468.637C469.301 143.907 469.937 143.797 470.546 143.576C471.174 143.355 471.728 143.04 472.208 142.634C472.687 142.209 473.066 141.721 473.343 141.167C473.638 140.595 473.786 139.958 473.786 139.257C473.786 138.057 473.417 137.124 472.679 136.46C471.959 135.777 471.017 135.435 469.854 135.435Z" fill="url(#paint3_linear_94_27)"/>
<path d="M357.824 123.417C358.618 123.417 359.468 123.456 360.372 123.529C361.276 123.585 362.172 123.694 363.058 123.86C363.963 124.008 364.839 124.221 365.688 124.497C366.537 124.774 367.313 125.116 368.015 125.522L367.239 136.099C366.206 135.711 365.135 135.454 364.028 135.325C362.939 135.177 361.867 135.103 360.815 135.103C359.338 135.103 357.954 135.307 356.662 135.713C355.389 136.1 354.272 136.681 353.312 137.456C352.371 138.231 351.623 139.201 351.069 140.363C350.515 141.526 350.238 142.874 350.238 144.406C350.238 145.365 350.368 146.298 350.626 147.202C350.884 148.088 351.273 148.883 351.79 149.584C352.325 150.267 352.98 150.821 353.755 151.246C354.549 151.67 355.462 151.883 356.495 151.883C357.197 151.883 357.917 151.79 358.655 151.605C359.412 151.421 360.059 151.107 360.594 150.664L360.705 148.504L354.06 148.394L354.392 140.087C357.142 139.995 359.892 139.921 362.642 139.865C365.393 139.791 368.163 139.698 370.95 139.588L371.281 157.642C370.414 158.731 369.344 159.682 368.07 160.494C366.797 161.306 365.431 161.98 363.973 162.515C362.514 163.05 361.018 163.457 359.486 163.733C357.954 163.992 356.496 164.121 355.111 164.121C352.435 164.121 349.971 163.668 347.719 162.764C345.467 161.859 343.519 160.604 341.876 158.998C340.252 157.373 338.978 155.445 338.055 153.212C337.132 150.978 336.671 148.541 336.671 145.902C336.671 143.89 336.901 141.932 337.363 140.031C337.824 138.13 338.48 136.349 339.329 134.688C340.196 133.027 341.248 131.504 342.485 130.119C343.722 128.735 345.125 127.544 346.694 126.547C348.263 125.55 349.98 124.784 351.845 124.248C353.727 123.695 355.72 123.418 357.824 123.417Z" fill="url(#paint4_linear_94_27)"/>
<path d="M263.516 124.914L262.52 136.321L270.549 124.746L283.883 128.052L283.812 125.632L298.543 124.858L296.606 162.57L284.92 163.18L283.886 128.145L271.712 142.634L282.955 161.684L270.106 163.954L261.689 152.547L261.246 163.401L249.728 163.844L250.614 124.193L263.516 124.914Z" fill="url(#paint5_linear_94_27)"/>
<path fill-rule="evenodd" clip-rule="evenodd" d="M231.647 123.252C233.751 123.252 235.782 123.547 237.739 124.138C239.714 124.71 241.458 125.578 242.971 126.741C244.485 127.904 245.694 129.352 246.599 131.087C247.522 132.822 247.983 134.845 247.983 137.152C247.983 138.592 247.854 139.902 247.595 141.084C247.355 142.246 246.968 143.317 246.433 144.295C245.898 145.273 245.204 146.178 244.355 147.008C243.506 147.839 242.483 148.634 241.283 149.39L247.873 161.131L235.412 163.566L231.149 151.771L227.715 151.883L227.217 163.401H215.31C215.402 159.192 215.485 155.002 215.559 150.83C215.651 146.658 215.752 142.467 215.863 138.259C215.9 136.136 215.938 134.032 215.975 131.946C216.012 129.86 216.085 127.755 216.196 125.632C217.488 125.153 218.762 124.756 220.017 124.442C221.273 124.128 222.528 123.889 223.784 123.723C225.057 123.539 226.34 123.418 227.632 123.362C228.942 123.288 230.281 123.252 231.647 123.252ZM230.594 132.722C230.225 132.722 229.865 132.749 229.514 132.804C229.164 132.841 228.822 132.906 228.489 132.998L228.046 143.299H228.712C229.505 143.299 230.308 143.198 231.121 142.995C231.951 142.792 232.69 142.478 233.336 142.053C234 141.629 234.536 141.083 234.942 140.419C235.366 139.754 235.579 138.961 235.579 138.038C235.579 137.263 235.468 136.552 235.246 135.907C235.043 135.261 234.73 134.706 234.305 134.245C233.899 133.765 233.382 133.395 232.754 133.137C232.145 132.86 231.425 132.722 230.594 132.722Z" fill="url(#paint6_linear_94_27)"/>
<path d="M117.652 123.474C118.925 123.474 120.226 123.576 121.555 123.779C122.902 123.982 124.149 124.36 125.293 124.914L123.743 136.599C123.208 136.451 122.672 136.348 122.137 136.293C121.602 136.237 121.066 136.211 120.53 136.211C119.165 136.211 117.863 136.395 116.627 136.764C115.39 137.115 114.292 137.659 113.332 138.397C112.391 139.136 111.634 140.06 111.062 141.167C110.508 142.275 110.231 143.576 110.231 145.071C110.231 146.031 110.379 146.862 110.674 147.563C110.988 148.264 111.421 148.846 111.975 149.307C112.528 149.768 113.184 150.11 113.941 150.332C114.697 150.553 115.529 150.664 116.433 150.664C117.116 150.664 117.826 150.59 118.564 150.442C119.303 150.294 120.033 150.102 120.753 149.862C121.473 149.622 122.174 149.345 122.857 149.031C123.54 148.717 124.167 148.394 124.74 148.061L123.633 161.075C122.913 161.445 122.128 161.777 121.279 162.072C120.449 162.349 119.589 162.598 118.703 162.819C117.817 163.022 116.931 163.18 116.045 163.29C115.159 163.401 114.31 163.456 113.498 163.456C111.154 163.456 108.966 163.023 106.936 162.155C104.906 161.288 103.142 160.097 101.647 158.583C100.152 157.069 98.9706 155.288 98.103 153.239C97.254 151.171 96.8292 148.946 96.8292 146.565C96.8292 143.409 97.2821 140.437 98.1866 137.65C99.0911 134.844 100.42 132.389 102.174 130.285C103.927 128.181 106.096 126.52 108.68 125.301C111.283 124.083 114.274 123.474 117.652 123.474Z" fill="url(#paint7_linear_94_27)"/>
<path d="M50.3396 143.409L50.7826 124.581L63.8518 124.138L61.8576 161.684L47.349 163.013L39.5957 142.911L38.3787 163.401H25.918L26.9143 124.138L40.7592 123.474L50.3396 143.409Z" fill="url(#paint8_linear_94_27)"/>
<path fill-rule="evenodd" clip-rule="evenodd" d="M214.95 161.463L201.216 163.235L199.556 156.977H193.242L191.858 163.235L177.737 161.851L188.757 124.969L204.151 124.193L214.95 161.463ZM194.405 148.504H198.558L196.453 138.869L194.405 148.504Z" fill="url(#paint9_linear_94_27)"/>
<path fill-rule="evenodd" clip-rule="evenodd" d="M419.406 161.463L405.671 163.235L404.01 156.977H397.697L396.313 163.235L382.191 161.851L393.212 124.969L408.607 124.193L419.406 161.463ZM398.861 148.504H403.013L400.909 138.869L398.861 148.504Z" fill="url(#paint10_linear_94_27)"/>
<path d="M323.214 123.417C324.783 123.417 326.158 123.676 327.339 124.193C328.521 124.71 329.536 125.412 330.385 126.298C331.234 127.184 331.945 128.236 332.517 129.454C333.089 130.654 333.552 131.938 333.902 133.304C334.253 134.669 334.52 136.1 334.705 137.595C334.89 139.072 335.009 140.53 335.064 141.97C335.138 143.41 335.176 144.803 335.176 146.151V149.833C335.176 151.919 335.148 153.987 335.093 156.035C335.056 158.066 334.991 160.115 334.899 162.182L318.949 161.906C319.503 158.639 319.984 155.381 320.39 152.132C320.796 148.865 320.999 145.57 320.999 142.247C320.999 142.007 320.989 141.619 320.97 141.084C320.952 140.548 320.915 139.948 320.86 139.283C320.805 138.601 320.722 137.908 320.611 137.207C320.519 136.487 320.381 135.832 320.196 135.241C320.03 134.651 319.818 134.171 319.559 133.802C319.32 133.414 319.024 133.22 318.673 133.22C318.046 133.22 317.51 133.404 317.067 133.774C316.643 134.143 316.282 134.622 315.987 135.213C315.71 135.785 315.488 136.432 315.322 137.152C315.156 137.872 315.028 138.592 314.936 139.312C314.862 140.032 314.805 140.715 314.768 141.361C314.75 141.988 314.742 142.505 314.742 142.911C314.649 146.178 314.575 149.427 314.519 152.657C314.464 155.869 314.391 159.119 314.299 162.404L300.176 163.013C300.545 156.497 300.897 150.018 301.229 143.576C301.58 137.134 301.857 130.654 302.06 124.138L315.129 123.474L315.018 127.904C315.534 127.277 316.089 126.686 316.679 126.132C317.288 125.578 317.935 125.107 318.618 124.72C319.301 124.314 320.021 124 320.778 123.779C321.553 123.539 322.365 123.417 323.214 123.417Z" fill="url(#paint11_linear_94_27)"/>
<path fill-rule="evenodd" clip-rule="evenodd" d="M235.095 15.4458C238.871 15.4459 242.308 15.9758 245.406 17.0365C248.546 18.0549 251.325 19.4985 253.744 21.3656C256.205 23.1902 258.327 25.3747 260.11 27.9207C261.934 30.4665 263.419 33.267 264.565 36.3219C265.753 39.3346 266.622 42.5392 267.174 45.9338C267.768 49.286 268.065 52.7017 268.065 56.1811C268.065 59.8727 267.811 63.5645 267.302 67.2561C260.046 67.7228 252.832 68.4875 245.661 69.5483C238.49 70.5667 231.318 71.5852 224.146 72.6036C225.25 75.6586 226.969 78.0987 229.303 79.9233C231.679 81.7475 234.5 82.66 237.767 82.6601C239.465 82.6601 241.311 82.3412 243.306 81.7047C245.342 81.0683 247.357 80.2829 249.352 79.3494C251.346 78.3735 253.256 77.3344 255.081 76.2311C256.905 75.1278 258.476 74.13 259.791 73.2389L256.736 102.136C255.081 103.409 253.277 104.491 251.325 105.382C249.416 106.273 247.422 106.995 245.342 107.547C243.263 108.098 241.163 108.501 239.041 108.756C236.92 109.011 234.84 109.138 232.803 109.138C228.602 109.137 224.761 108.565 221.282 107.419C217.803 106.273 214.642 104.682 211.799 102.645C208.999 100.566 206.536 98.1263 204.415 95.3257C202.293 92.5253 200.532 89.4696 199.132 86.1599C197.732 82.8504 196.67 79.3502 195.949 75.6588C195.228 71.9672 194.868 68.2327 194.867 64.4562C194.867 60.5099 195.228 56.5629 195.949 52.6166C196.67 48.6704 197.754 44.8724 199.197 41.2232C200.682 37.5743 202.527 34.201 204.733 31.1036C206.982 27.9636 209.592 25.2255 212.562 22.8916C215.532 20.5579 218.885 18.7334 222.619 17.418C226.395 16.1026 230.555 15.4458 235.095 15.4458ZM235.221 42.3063C233.524 42.3064 232.018 42.7729 230.703 43.7062C229.43 44.5973 228.326 45.7427 227.392 47.143C226.459 48.5007 225.696 49.986 225.102 51.5982C224.508 53.2104 224.062 54.6957 223.765 56.0534L242.606 54.272V52.872C242.606 51.6839 242.477 50.4735 242.223 49.2429C241.968 47.9702 241.544 46.8243 240.95 45.8061C240.399 44.788 239.656 43.9611 238.723 43.3247C237.789 42.6458 236.622 42.3063 235.221 42.3063Z" fill="url(#paint12_linear_94_27)"/>
<path fill-rule="evenodd" clip-rule="evenodd" d="M310.329 15.4458C314.105 15.4458 317.542 15.9758 320.64 17.0365C323.78 18.0549 326.559 19.4985 328.978 21.3656C331.439 23.1902 333.561 25.3747 335.344 27.9207C337.168 30.4665 338.653 33.2669 339.799 36.3219C340.987 39.3346 341.856 42.5392 342.408 45.9338C343.002 49.286 343.3 52.7017 343.3 56.1811C343.3 59.8727 343.045 63.5645 342.536 67.2561C335.28 67.7228 328.066 68.4875 320.895 69.5483C313.724 70.5667 306.552 71.5852 299.38 72.6036C300.484 75.6587 302.203 78.0987 304.537 79.9233C306.913 81.7477 309.736 82.6601 313.003 82.6601C314.7 82.66 316.546 82.3411 318.54 81.7047C320.576 81.0682 322.593 80.283 324.587 79.3494C326.581 78.3736 328.49 77.3342 330.315 76.2311C332.139 75.1278 333.71 74.13 335.025 73.2389L331.97 102.136C330.315 103.409 328.511 104.491 326.559 105.382C324.65 106.273 322.656 106.995 320.576 107.547C318.497 108.098 316.397 108.501 314.275 108.756C312.153 109.011 310.074 109.138 308.037 109.138C303.836 109.137 299.997 108.565 296.517 107.419C293.038 106.273 289.876 104.682 287.033 102.645C284.233 100.566 281.77 98.1263 279.649 95.3257C277.527 92.5253 275.766 89.4695 274.366 86.1599C272.966 82.8505 271.906 79.35 271.185 75.6588C270.463 71.9672 270.101 68.2327 270.101 64.4562C270.101 60.5099 270.463 56.5629 271.185 52.6166C271.906 48.6705 272.988 44.8724 274.431 41.2232C275.916 37.5743 277.761 34.201 279.967 31.1036C282.216 27.9636 284.826 25.2255 287.796 22.8916C290.766 20.5579 294.119 18.7334 297.853 17.418C301.629 16.1026 305.789 15.4458 310.329 15.4458ZM310.457 42.3063C308.76 42.3063 307.252 42.7727 305.937 43.7062C304.664 44.5972 303.561 45.7429 302.628 47.143C301.694 48.5008 300.93 49.9859 300.336 51.5982C299.742 53.2105 299.296 54.6957 298.999 56.0534L317.84 54.272V52.872C317.84 51.6839 317.713 50.4735 317.458 49.2429C317.204 47.9701 316.778 46.8244 316.184 45.8061C315.633 44.788 314.89 43.9611 313.957 43.3247C313.023 42.6459 311.857 42.3064 310.457 42.3063Z" fill="url(#paint13_linear_94_27)"/>
<path d="M47.5809 13.2812C49.6601 13.2812 51.8034 13.3653 54.0099 13.5351C56.2164 13.6624 58.4025 13.9178 60.5666 14.2997C62.7727 14.6815 64.9151 15.1703 66.994 15.7642C69.0732 16.3583 71.0467 17.1008 72.9138 17.9918L70.4954 43.8339C67.6099 42.858 64.5752 42.0505 61.3927 41.414C58.2529 40.7352 55.1763 40.3956 52.1638 40.3956C51.6122 40.3956 50.8902 40.4178 49.9993 40.4602C49.1508 40.4602 48.2381 40.5237 47.2624 40.651C46.3293 40.7358 45.3751 40.885 44.3995 41.0971C43.4235 41.3093 42.5526 41.6059 41.7888 41.9878C41.0252 42.3273 40.4094 42.7938 39.9427 43.3878C39.4762 43.9817 39.2651 44.6818 39.3074 45.4877C39.3498 46.4212 39.6893 47.1858 40.3258 47.7799C41.0047 48.3314 41.8537 48.7774 42.8719 49.1168C43.9325 49.4137 45.0784 49.6249 46.3087 49.7521C47.5816 49.8794 48.8334 49.9651 50.0639 50.0075H53.5007C54.5611 49.9651 55.431 49.9858 56.1098 50.0706C59.5043 50.2827 62.56 51.0047 65.2756 52.2351C67.9913 53.4657 70.2837 55.0997 72.1507 57.1365C74.0601 59.1732 75.5023 61.6133 76.4782 64.4562C77.4965 67.2566 78.0058 70.3538 78.0059 73.7481C78.0059 79.5614 76.9873 84.6539 74.9506 89.0245C72.9563 93.3525 70.1989 96.9602 66.6771 99.8456C63.1976 102.731 59.1015 104.895 54.3914 106.338C49.724 107.78 44.6961 108.502 39.3074 108.502C37.2282 108.502 34.9358 108.226 32.4323 107.675C29.9712 107.123 27.4677 106.444 24.9218 105.638C22.3759 104.789 19.9152 103.897 17.539 102.964C15.2052 101.988 13.1254 101.076 11.3008 100.227L14.1007 74.0035C17.7075 76.1676 21.6973 77.8222 26.0679 78.9679C30.4808 80.0711 34.8088 80.6232 39.052 80.6233C39.8581 80.6233 40.8341 80.601 41.9796 80.5586C43.1251 80.4738 44.2074 80.2833 45.2256 79.9863C46.2862 79.647 47.1781 79.1596 47.8994 78.5233C48.6207 77.8868 48.9824 76.9731 48.9824 75.785C48.9823 74.979 48.7269 74.2996 48.2178 73.7481C47.7087 73.1542 47.0501 72.6876 46.244 72.3482C45.438 71.9664 44.5253 71.6902 43.5072 71.5205C42.4892 71.3084 41.4922 71.1608 40.5166 71.0759C39.5408 70.9911 38.6283 70.9483 37.7798 70.9482H35.7429C32.0937 70.9482 28.7622 70.312 25.7495 69.0391C22.7793 67.7662 20.2122 66.005 18.0482 63.7562C15.9266 61.4648 14.2704 58.7695 13.0822 55.6719C11.8942 52.532 11.3008 49.1367 11.3008 45.4877C11.3008 40.4807 12.2987 36.0036 14.293 32.0574C16.3297 28.0691 19.0238 24.6958 22.3757 21.9378C25.7704 19.1372 29.6539 16.994 34.0245 15.5089C38.3948 14.0239 42.9136 13.2813 47.5809 13.2812Z" fill="url(#paint14_linear_94_27)"/>
<path fill-rule="evenodd" clip-rule="evenodd" d="M381.426 16.8457C384.693 16.8457 387.96 17.1218 391.228 17.6734C394.495 18.1826 397.614 19.0093 400.584 20.1548C403.597 21.3005 406.376 22.7442 408.922 24.4839C411.511 26.1812 413.74 28.2182 415.607 30.5944C417.474 32.9706 418.938 35.6868 419.999 38.7418C421.102 41.7968 421.653 45.1922 421.653 48.926C421.652 53.0418 421.037 56.691 419.806 59.8733C418.576 63.0557 416.878 65.8559 414.714 68.2745C412.593 70.6507 410.089 72.6671 407.204 74.322C404.319 75.9342 401.221 77.2703 397.912 78.331C394.645 79.3494 391.25 80.1141 387.728 80.6233C384.206 81.09 380.747 81.3438 377.353 81.3863V108.502H347.691V94.372C347.733 89.7894 347.755 85.2487 347.755 80.751C347.798 76.2106 347.818 71.6481 347.818 67.0653C347.861 62.4827 347.904 57.7516 347.946 52.872C348.031 47.6952 348.052 42.5172 348.009 37.3403C347.967 32.1637 348.073 26.944 348.328 21.6824C353.759 20.07 359.191 18.8611 364.622 18.0549C370.054 17.2487 375.655 16.8457 381.426 16.8457ZM384.354 42.3063C383.463 42.3063 382.53 42.3905 381.554 42.5601C380.621 42.6874 379.729 42.8572 378.88 43.0693L378.116 61.6547C378.71 61.7396 379.283 61.7824 379.834 61.7824H381.554C383.081 61.7824 384.545 61.5284 385.945 61.0194C387.387 60.5102 388.661 59.7884 389.765 58.8549C390.868 57.8789 391.737 56.7541 392.374 55.4811C393.053 54.1657 393.392 52.7015 393.392 51.089C393.392 48.331 392.543 46.1875 390.846 44.66C389.191 43.0903 387.027 42.3063 384.354 42.3063Z" fill="url(#paint15_linear_94_27)"/>
<path d="M502.616 21.4286L472.7 70.3113L473.592 106.338H440.875L441.639 70.5667L418.343 23.3378L450.805 19.2641L460.988 46.7615L472.064 19.2641L502.616 21.4286Z" fill="url(#paint16_linear_94_27)"/>
<path d="M195.377 19.2641L180.483 104.938L144.329 105.701L136.564 62.547L128.799 102.392L92.6453 103.664L77.6244 21.8101L109.194 19.0103L115.56 69.2929L124.089 22.8286H148.912L158.841 69.9298L163.933 16.4642L195.377 19.2641Z" fill="url(#paint17_linear_94_27)"/>
<defs>
<linearGradient id="paint0_linear_94_27" x1="272.017" y1="165.029" x2="272.017" y2="123.056" gradientUnits="userSpaceOnUse">
<stop stop-color="#44758C"/>
<stop offset="0.192308" stop-color="#89BDD8"/>
<stop offset="0.711538" stop-color="#C0E0ED"/>
<stop offset="0.836538" stop-color="#EEF7FB"/>
</linearGradient>
<linearGradient id="paint1_linear_94_27" x1="272.017" y1="165.029" x2="272.017" y2="123.056" gradientUnits="userSpaceOnUse">
<stop stop-color="#44758C"/>
<stop offset="0.192308" stop-color="#89BDD8"/>
<stop offset="0.711538" stop-color="#C0E0ED"/>
<stop offset="0.836538" stop-color="#EEF7FB"/>
</linearGradient>
<linearGradient id="paint2_linear_94_27" x1="272.017" y1="165.029" x2="272.017" y2="123.056" gradientUnits="userSpaceOnUse">
<stop stop-color="#44758C"/>
<stop offset="0.192308" stop-color="#89BDD8"/>
<stop offset="0.711538" stop-color="#C0E0ED"/>
<stop offset="0.836538" stop-color="#EEF7FB"/>
</linearGradient>
<linearGradient id="paint3_linear_94_27" x1="272.017" y1="165.029" x2="272.017" y2="123.056" gradientUnits="userSpaceOnUse">
<stop stop-color="#44758C"/>
<stop offset="0.192308" stop-color="#89BDD8"/>
<stop offset="0.711538" stop-color="#C0E0ED"/>
<stop offset="0.836538" stop-color="#EEF7FB"/>
</linearGradient>
<linearGradient id="paint4_linear_94_27" x1="272.017" y1="165.029" x2="272.017" y2="123.056" gradientUnits="userSpaceOnUse">
<stop stop-color="#44758C"/>
<stop offset="0.192308" stop-color="#89BDD8"/>
<stop offset="0.711538" stop-color="#C0E0ED"/>
<stop offset="0.836538" stop-color="#EEF7FB"/>
</linearGradient>
<linearGradient id="paint5_linear_94_27" x1="272.017" y1="165.029" x2="272.017" y2="123.056" gradientUnits="userSpaceOnUse">
<stop stop-color="#44758C"/>
<stop offset="0.192308" stop-color="#89BDD8"/>
<stop offset="0.711538" stop-color="#C0E0ED"/>
<stop offset="0.836538" stop-color="#EEF7FB"/>
</linearGradient>
<linearGradient id="paint6_linear_94_27" x1="272.017" y1="165.029" x2="272.017" y2="123.056" gradientUnits="userSpaceOnUse">
<stop stop-color="#44758C"/>
<stop offset="0.192308" stop-color="#89BDD8"/>
<stop offset="0.711538" stop-color="#C0E0ED"/>
<stop offset="0.836538" stop-color="#EEF7FB"/>
</linearGradient>
<linearGradient id="paint7_linear_94_27" x1="272.017" y1="165.029" x2="272.017" y2="123.056" gradientUnits="userSpaceOnUse">
<stop stop-color="#44758C"/>
<stop offset="0.192308" stop-color="#89BDD8"/>
<stop offset="0.711538" stop-color="#C0E0ED"/>
<stop offset="0.836538" stop-color="#EEF7FB"/>
</linearGradient>
<linearGradient id="paint8_linear_94_27" x1="272.017" y1="165.029" x2="272.017" y2="123.056" gradientUnits="userSpaceOnUse">
<stop stop-color="#44758C"/>
<stop offset="0.192308" stop-color="#89BDD8"/>
<stop offset="0.711538" stop-color="#C0E0ED"/>
<stop offset="0.836538" stop-color="#EEF7FB"/>
</linearGradient>
<linearGradient id="paint9_linear_94_27" x1="272.017" y1="165.029" x2="272.017" y2="123.056" gradientUnits="userSpaceOnUse">
<stop stop-color="#44758C"/>
<stop offset="0.192308" stop-color="#89BDD8"/>
<stop offset="0.711538" stop-color="#C0E0ED"/>
<stop offset="0.836538" stop-color="#EEF7FB"/>
</linearGradient>
<linearGradient id="paint10_linear_94_27" x1="272.017" y1="165.029" x2="272.017" y2="123.056" gradientUnits="userSpaceOnUse">
<stop stop-color="#44758C"/>
<stop offset="0.192308" stop-color="#89BDD8"/>
<stop offset="0.711538" stop-color="#C0E0ED"/>
<stop offset="0.836538" stop-color="#EEF7FB"/>
</linearGradient>
<linearGradient id="paint11_linear_94_27" x1="272.017" y1="165.029" x2="272.017" y2="123.056" gradientUnits="userSpaceOnUse">
<stop stop-color="#44758C"/>
<stop offset="0.192308" stop-color="#89BDD8"/>
<stop offset="0.711538" stop-color="#C0E0ED"/>
<stop offset="0.836538" stop-color="#EEF7FB"/>
</linearGradient>
<linearGradient id="paint12_linear_94_27" x1="279.281" y1="13.2813" x2="279.281" y2="108.527" gradientUnits="userSpaceOnUse">
<stop offset="0.0673077" stop-color="#F9EEA7"/>
<stop offset="0.222146" stop-color="#FFC32B"/>
<stop offset="0.867392" stop-color="#FF6B2B"/>
<stop offset="1" stop-color="#F42703"/>
</linearGradient>
<linearGradient id="paint13_linear_94_27" x1="279.281" y1="13.2813" x2="279.281" y2="108.527" gradientUnits="userSpaceOnUse">
<stop offset="0.0673077" stop-color="#F9EEA7"/>
<stop offset="0.222146" stop-color="#FFC32B"/>
<stop offset="0.867392" stop-color="#FF6B2B"/>
<stop offset="1" stop-color="#F42703"/>
</linearGradient>
<linearGradient id="paint14_linear_94_27" x1="279.281" y1="13.2813" x2="279.281" y2="108.527" gradientUnits="userSpaceOnUse">
<stop offset="0.0673077" stop-color="#F9EEA7"/>
<stop offset="0.222146" stop-color="#FFC32B"/>
<stop offset="0.867392" stop-color="#FF6B2B"/>
<stop offset="1" stop-color="#F42703"/>
</linearGradient>
<linearGradient id="paint15_linear_94_27" x1="279.281" y1="13.2813" x2="279.281" y2="108.527" gradientUnits="userSpaceOnUse">
<stop offset="0.0673077" stop-color="#F9EEA7"/>
<stop offset="0.222146" stop-color="#FFC32B"/>
<stop offset="0.867392" stop-color="#FF6B2B"/>
<stop offset="1" stop-color="#F42703"/>
</linearGradient>
<linearGradient id="paint16_linear_94_27" x1="279.281" y1="13.2813" x2="279.281" y2="108.527" gradientUnits="userSpaceOnUse">
<stop offset="0.0673077" stop-color="#F9EEA7"/>
<stop offset="0.222146" stop-color="#FFC32B"/>
<stop offset="0.867392" stop-color="#FF6B2B"/>
<stop offset="1" stop-color="#F42703"/>
</linearGradient>
<linearGradient id="paint17_linear_94_27" x1="279.281" y1="13.2813" x2="279.281" y2="108.527" gradientUnits="userSpaceOnUse">
<stop offset="0.0673077" stop-color="#F9EEA7"/>
<stop offset="0.222146" stop-color="#FFC32B"/>
<stop offset="0.867392" stop-color="#FF6B2B"/>
<stop offset="1" stop-color="#F42703"/>
</linearGradient>
</defs>
</svg>
