<svg width="3940" height="1489" viewBox="0 0 3940 1489" fill="none" xmlns="http://www.w3.org/2000/svg">
<path d="M3845 424.891C3845 453.331 3843.04 481.77 3839.11 510.21C3783.22 513.806 3727.64 519.69 3672.4 527.862C3617.15 535.708 3561.91 543.553 3506.66 551.398C3515.16 574.935 3528.4 593.731 3546.38 607.787C3564.69 621.844 3586.43 628.872 3611.6 628.872C3624.67 628.872 3638.89 626.42 3654.26 621.517C3669.95 616.613 3685.47 610.566 3700.84 603.374C3716.2 595.856 3730.91 587.847 3744.97 579.348C3759.03 570.848 3771.12 563.166 3781.25 556.302L3757.72 778.915C3744.97 788.722 3731.08 797.058 3716.04 803.922C3701.33 810.787 3685.96 816.344 3669.95 820.594C3653.93 824.843 3637.75 827.949 3621.4 829.91C3605.06 831.871 3589.04 832.852 3573.35 832.852C3540.99 832.852 3511.4 828.439 3484.6 819.613C3457.79 810.787 3433.44 798.529 3411.54 782.838C3389.96 766.82 3371 748.024 3354.66 726.449C3338.32 704.874 3324.75 681.338 3313.96 655.84C3303.17 630.343 3295 603.374 3289.45 574.935C3283.89 546.495 3281.11 517.728 3281.11 488.635C3281.11 458.234 3283.89 427.833 3289.45 397.432C3295 367.031 3303.34 337.775 3314.45 309.662C3325.89 281.549 3340.11 255.561 3357.11 231.698C3374.44 207.508 3394.54 186.424 3417.42 168.445C3440.31 150.466 3466.13 136.409 3494.9 126.276C3523.99 116.142 3556.03 111.075 3591 111.075C3620.1 111.075 3646.57 115.161 3670.44 123.334C3694.63 131.179 3716.04 142.293 3734.67 156.677C3753.63 170.733 3769.98 187.568 3783.71 207.181C3797.76 226.795 3809.2 248.37 3818.03 271.906C3827.18 295.115 3833.88 319.796 3838.13 345.947C3842.71 371.771 3845 398.086 3845 424.891ZM3648.86 399.394C3648.86 390.241 3647.88 380.924 3645.92 371.444C3643.96 361.638 3640.69 352.812 3636.11 344.966C3631.86 337.121 3626.14 330.746 3618.95 325.843C3611.76 320.613 3602.77 317.998 3591.98 317.998C3578.91 317.998 3567.3 321.593 3557.17 328.785C3547.36 335.65 3538.86 344.476 3531.67 355.263C3524.48 365.724 3518.6 377.165 3514.02 389.587C3509.44 402.009 3506.01 413.45 3503.72 423.911L3648.86 410.181V399.394Z" fill="url(#paint0_linear_58_694)"/>
<path d="M3266.89 431.756C3266.89 477.521 3261 518.546 3249.23 554.831C3237.47 591.116 3220.96 623.314 3199.71 651.427C3178.79 679.213 3153.78 702.913 3124.69 722.526C3095.6 742.14 3063.72 758.321 3029.07 771.069C2994.42 783.491 2957.48 792.644 2918.26 798.528C2879.36 804.412 2839.31 807.354 2798.12 807.354C2782.76 807.354 2767.72 807.028 2753.01 806.374C2738.3 805.393 2723.27 804.086 2707.9 802.451L2721.63 164.032C2757.59 152.59 2794.53 144.581 2832.45 140.005C2870.69 135.102 2908.61 132.65 2946.21 132.65C2992.95 132.65 3035.94 139.188 3075.17 152.263C3114.39 165.339 3148.23 184.626 3176.67 210.123C3205.1 235.294 3227.17 266.512 3242.86 303.778C3258.88 340.716 3266.89 383.376 3266.89 431.756ZM2933.46 620.046C2953.07 617.104 2970.89 611.219 2986.9 602.393C3003.25 593.24 3017.31 582.126 3029.07 569.05C3040.84 555.648 3049.83 540.611 3056.04 523.939C3062.58 506.941 3065.85 488.962 3065.85 470.002C3065.85 451.369 3063.89 434.044 3059.96 418.026C3056.04 401.682 3049.67 387.625 3040.84 375.857C3032.02 363.762 3020.41 354.283 3006.03 347.418C2991.64 340.226 2973.99 336.303 2953.07 335.65L2933.46 620.046Z" fill="url(#paint1_linear_58_694)"/>
<path d="M2671.13 130.688L2636.81 798.528L2429.88 809.316L2410.27 144.418L2671.13 130.688Z" fill="url(#paint2_linear_58_694)"/>
<path d="M2383.79 560.224C2383.79 605.009 2375.95 644.236 2360.26 677.906C2344.89 711.249 2323.64 739.034 2296.51 761.263C2269.71 783.492 2238.16 800.163 2201.88 811.277C2165.92 822.392 2127.18 827.949 2085.67 827.949C2069.65 827.949 2052 825.824 2032.71 821.575C2013.75 817.325 1994.46 812.095 1974.85 805.884C1955.24 799.346 1936.28 792.481 1917.97 785.29C1899.99 777.771 1883.97 770.743 1869.92 764.205L1891.49 562.186C1919.28 578.857 1950.01 591.606 1983.68 600.432C2017.67 608.931 2051.02 613.181 2083.71 613.181C2089.92 613.181 2097.43 613.018 2106.26 612.691C2115.09 612.037 2123.42 610.566 2131.27 608.278C2139.44 605.663 2146.3 601.903 2151.86 597C2157.42 592.097 2160.2 585.068 2160.2 575.915C2160.2 569.704 2158.24 564.474 2154.31 560.224C2150.39 555.648 2145.32 552.052 2139.11 549.437C2132.9 546.495 2125.87 544.37 2118.03 543.063C2110.18 541.428 2102.5 540.284 2094.98 539.63C2087.46 538.977 2080.44 538.65 2073.9 538.65C2067.36 538.65 2062.13 538.65 2058.21 538.65C2030.09 538.65 2004.43 533.746 1981.22 523.94C1958.34 514.133 1938.57 500.567 1921.89 483.242C1905.55 465.589 1892.8 444.832 1883.65 420.969C1874.49 396.779 1869.92 370.627 1869.92 342.515C1869.92 303.941 1877.6 269.454 1892.96 239.053C1908.65 208.326 1929.41 182.338 1955.24 161.09C1981.39 139.515 2011.3 123.007 2044.97 111.566C2078.64 100.124 2113.45 94.4038 2149.41 94.4038C2165.43 94.4038 2181.94 95.0576 2198.93 96.3652C2215.93 97.3458 2232.77 99.3072 2249.44 102.249C2266.44 105.191 2282.95 108.95 2298.96 113.527C2314.98 118.103 2330.18 123.824 2344.56 130.689L2325.93 329.766C2303.7 322.247 2280.33 316.036 2255.81 311.133C2231.62 305.903 2207.92 303.288 2184.71 303.288C2180.47 303.288 2174.91 303.451 2168.04 303.778C2161.51 303.778 2154.48 304.268 2146.96 305.249C2139.77 305.903 2132.41 307.047 2124.89 308.681C2117.38 310.316 2110.67 312.604 2104.79 315.546C2098.91 318.161 2094.17 321.757 2090.57 326.333C2086.97 330.91 2085.34 336.304 2085.67 342.515C2085.99 349.706 2088.61 355.59 2093.51 360.167C2098.74 364.416 2105.28 367.849 2113.13 370.464C2121.3 372.752 2130.12 374.387 2139.6 375.367C2149.41 376.348 2159.05 377.002 2168.53 377.329C2178.01 377.329 2186.84 377.329 2195.01 377.329C2203.18 377.002 2209.89 377.165 2215.12 377.819C2241.27 379.453 2264.8 385.011 2285.72 394.49C2306.65 403.97 2324.3 416.556 2338.68 432.246C2353.39 447.937 2364.51 466.733 2372.02 488.635C2379.87 510.21 2383.79 534.073 2383.79 560.224Z" fill="url(#paint3_linear_58_694)"/>
<path d="M1657.6 129.708L1652.69 337.611L1506.57 343.495L1488.92 798.529L1282 809.316L1263.37 354.283L1117.25 362.128L1123.13 130.689L1657.6 129.708Z" fill="url(#paint4_linear_58_694)"/>
<path d="M1193.74 561.205L1173.15 778.915L760.281 811.277L775.972 111.075H1030.95L994.663 561.205H1193.74Z" fill="url(#paint5_linear_58_694)"/>
<path d="M753.416 778.915L510.209 810.296L480.788 699.48H368.991L344.475 810.296L94.4023 785.78L289.557 132.65L562.184 118.92L753.416 778.915ZM463.136 549.437L425.871 378.799L389.586 549.437H463.136Z" fill="url(#paint6_linear_58_694)"/>
<path d="M3845 424.891C3845 398.086 3842.71 371.772 3838.13 345.947C3833.88 319.796 3827.18 295.115 3818.03 271.906C3809.2 248.37 3797.76 226.795 3783.71 207.181C3769.98 187.568 3753.63 170.733 3734.67 156.677C3716.04 142.293 3694.63 131.179 3670.44 123.334C3647.32 115.417 3621.75 111.334 3593.72 111.087L3591 111.075C3556.03 111.075 3523.99 116.142 3494.9 126.275C3466.13 136.409 3440.31 150.466 3417.42 168.445L3415.29 170.14C3393.29 187.745 3373.9 208.264 3357.11 231.698C3340.11 255.561 3325.89 281.549 3314.45 309.662C3303.34 337.775 3295 367.032 3289.45 397.432L3288.93 400.282C3283.72 429.733 3281.11 459.184 3281.11 488.635C3281.11 517.728 3283.89 546.495 3289.45 574.935C3295 603.374 3303.17 630.342 3313.96 655.84C3324.75 681.337 3338.31 704.874 3354.66 726.449C3371 748.024 3389.96 766.82 3411.54 782.838C3433.44 798.529 3457.79 810.787 3484.6 819.613C3510.57 828.164 3539.14 832.572 3570.32 832.839L3573.35 832.853C3588.06 832.853 3603.06 831.99 3618.34 830.267L3621.4 829.91C3636.73 828.071 3651.91 825.227 3666.94 821.377L3669.95 820.594C3685.96 816.344 3701.33 810.787 3716.04 803.922C3731.08 797.058 3744.97 788.722 3757.72 778.915L3781.25 556.302C3771.12 563.166 3759.03 570.848 3744.97 579.348C3730.91 587.847 3716.2 595.856 3700.84 603.374C3685.47 610.566 3669.95 616.613 3654.26 621.517C3638.89 626.42 3624.67 628.872 3611.6 628.872C3586.43 628.872 3564.69 621.843 3546.38 607.787C3528.4 593.731 3515.16 574.934 3506.66 551.398L3672.4 527.862C3727.64 519.69 3783.22 513.806 3839.11 510.21C3842.91 482.659 3844.87 455.108 3844.99 427.558L3845 424.891ZM3591.98 317.998C3602.77 317.998 3611.76 320.613 3618.95 325.843C3626.14 330.746 3631.86 337.121 3636.11 344.966C3640.69 352.812 3643.96 361.638 3645.92 371.444C3647.88 380.924 3648.86 390.241 3648.86 399.394V410.181L3503.72 423.91C3506.01 413.45 3509.44 402.009 3514.02 389.587C3518.6 377.165 3524.48 365.724 3531.67 355.264C3538.86 344.476 3547.36 335.65 3557.17 328.785C3567.3 321.594 3578.91 317.998 3591.98 317.998ZM3939.39 427.966C3939.26 459.733 3937 491.457 3932.63 523.109C3927.77 558.364 3903.76 587.038 3871.69 598.825L3851.6 788.841C3848.88 814.533 3835.75 837.989 3815.28 853.741C3796.9 867.876 3777.07 879.772 3755.96 889.47L3754.09 890.333C3734.8 899.207 3714.79 906.366 3694.16 911.841C3673.91 917.212 3653.4 921.152 3632.65 923.642C3612.76 926.029 3592.98 927.256 3573.35 927.256C3533.04 927.256 3493.93 921.839 3456.84 909.856L3455.07 909.281C3420.17 897.787 3387.64 881.619 3357.97 860.585L3356.56 859.58L3355.26 858.636C3327.35 837.914 3302.7 813.676 3281.46 786.131L3279.41 783.455C3258.9 756.381 3241.88 727.05 3228.32 695.667L3227.02 692.624C3219.73 675.4 3213.45 657.744 3208.15 639.685C3225.38 614.446 3239.07 586.162 3249.24 554.831C3261 518.546 3266.89 477.521 3266.89 431.756C3266.89 383.376 3258.88 340.716 3242.86 303.777C3238.3 292.933 3233.19 282.602 3227.54 272.782C3241.56 238.617 3259.09 206.591 3280.22 176.927L3280.36 176.729C3302.77 145.444 3329.04 117.833 3359.1 94.2129C3390.48 69.5552 3425.5 50.6323 3463.53 37.2354L3463.84 37.125C3504.17 23.078 3546.86 16.6709 3591 16.6709C3628.64 16.6709 3665.35 21.9234 3700.2 33.7422C3733.33 44.5599 3764.09 60.2756 3791.61 81.373C3818.46 101.402 3841.61 125.338 3860.88 152.81C3879.59 179.031 3894.62 207.512 3906.11 237.937C3917.66 267.36 3925.95 298.119 3931.18 330.004C3936.68 361.213 3939.4 392.867 3939.4 424.892L3939.39 427.966Z" fill="black"/>
<path d="M3266.89 431.756C3266.89 383.376 3258.88 340.716 3242.86 303.777C3227.17 266.512 3205.11 235.294 3176.67 210.123C3148.67 185.024 3115.45 165.943 3077 152.881L3075.17 152.264C3036.55 139.392 2994.3 132.855 2948.4 132.654L2946.21 132.65C2908.62 132.65 2870.7 135.102 2832.45 140.005L2828.9 140.444C2792.22 145.086 2756.47 152.948 2721.63 164.031L2707.9 802.451C2723.27 804.086 2738.3 805.393 2753.01 806.374C2767.72 807.028 2782.76 807.354 2798.13 807.354C2839.31 807.354 2879.36 804.412 2918.26 798.528C2957.49 792.644 2994.42 783.491 3029.07 771.069C3062.64 758.719 3093.6 743.147 3121.95 724.354L3124.69 722.526C3153.78 702.913 3178.79 679.212 3199.71 651.427C3220.63 623.753 3236.95 592.121 3248.68 556.528L3249.24 554.831C3261 518.546 3266.89 477.521 3266.89 431.756ZM2953.07 335.649C2973.99 336.303 2991.65 340.226 3006.03 347.418C3020.41 354.283 3032.02 363.762 3040.84 375.857C3049.67 387.625 3056.04 401.682 3059.97 418.026C3063.89 434.044 3065.85 451.369 3065.85 470.002L3065.84 471.777C3065.64 490.085 3062.38 507.472 3056.04 523.939C3049.83 540.611 3040.84 555.648 3029.07 569.051C3017.31 582.126 3003.25 593.241 2986.91 602.394C2970.89 611.22 2953.07 617.104 2933.46 620.046L2953.07 335.649ZM3289.44 397.433C3283.89 427.833 3281.11 458.234 3281.11 488.635C3281.11 517.728 3283.89 546.495 3289.44 574.935C3294.59 601.255 3301.97 626.315 3311.6 650.115C3301.05 670.571 3288.88 690.017 3275.02 708.349C3247.76 744.521 3215.12 775.416 3177.46 800.803C3141.76 824.869 3103.07 844.437 3061.67 859.667C3061.43 859.758 3061.18 859.847 3060.93 859.936C3020.06 874.587 2977.11 885.161 2932.26 891.888L2932.26 891.887C2888.51 898.498 2843.78 901.759 2798.13 901.759C2782.47 901.759 2767.04 901.446 2751.86 900.815L2748.82 900.685C2748.13 900.654 2747.43 900.615 2746.74 900.568C2730.73 899.501 2714.46 898.085 2697.92 896.325C2649.14 891.136 2612.47 849.46 2613.52 800.422L2613.54 799.741L2636.8 798.528L2671.13 130.688L2632.57 132.718C2642.21 105.293 2664.25 83.2241 2693.01 74.0723C2734.48 60.8783 2777 51.6481 2820.51 46.3584C2862.61 40.9631 2904.52 38.2461 2946.21 38.2461C3001.79 38.2461 3055 46.0313 3105.02 62.7041C3155.48 79.5246 3200.85 105.019 3239.69 139.833C3279.07 174.817 3308.97 217.663 3329.7 266.759C3330.49 268.572 3331.25 270.391 3332 272.217C3325.57 284.249 3319.71 296.731 3314.45 309.662C3303.34 337.775 3295 367.032 3289.44 397.433Z" fill="black"/>
<path d="M2666.17 36.4148C2692.87 35.0094 2718.92 44.9958 2737.84 63.8933C2756.76 82.7911 2766.78 108.827 2765.41 135.534L2764.56 152.117C2750.1 155.557 2735.79 159.527 2721.63 164.031L2707.91 802.451C2715.69 803.279 2723.39 804.022 2731.01 804.682C2727.9 852.37 2689.58 890.309 2641.72 892.804L2434.8 903.592C2409.43 904.914 2384.59 895.954 2365.91 878.736C2347.52 861.787 2336.61 838.245 2335.56 813.289L2335.52 812.099L2332.91 723.602C2343.48 709.749 2352.6 694.518 2360.26 677.906C2375.95 644.236 2383.79 605.009 2383.79 560.224C2383.79 534.073 2379.87 510.21 2372.02 488.635C2364.51 466.733 2353.39 447.937 2338.68 432.246C2334.09 427.236 2329.16 422.543 2323.9 418.166L2321.25 328.206C2322.81 328.719 2324.38 329.239 2325.93 329.766L2344.56 130.689C2336.33 126.758 2327.82 123.202 2319.05 120.021C2329.34 81.4888 2363.48 52.3458 2405.31 50.1443L2666.17 36.4148ZM2410.27 144.418L2429.88 809.316L2636.81 798.528L2671.13 130.688L2410.27 144.418Z" fill="black"/>
<path d="M1775.52 340.107C1775.84 289.581 1786.19 241.025 1808.7 196.473L1808.88 196.12C1830.27 154.231 1859.11 117.93 1895.25 88.1895C1930.62 59.0287 1970.68 37.1047 2014.59 22.1816C2058.15 7.37903 2103.24 2.45125e-05 2149.41 0C2167.74 0 2186.4 0.738239 2205.38 2.17969C2225.59 3.38411 2245.65 5.73118 2265.53 9.22852C2265.6 9.24007 2265.67 9.25209 2265.74 9.26367C2265.77 9.26989 2265.81 9.276 2265.84 9.28223C2284.67 12.5512 2303.15 16.6907 2321.26 21.7295L2324.9 22.7549C2345.09 28.5248 2364.63 35.7916 2383.41 44.6309L2385.22 45.4912L2386.06 45.8945C2421.28 63.1287 2442.21 100.38 2438.55 139.486L2438.23 142.945L2410.27 144.418L2416.52 356.327C2415.02 361.448 2413.09 366.414 2410.76 371.177C2412.96 373.612 2415.09 376.084 2417.17 378.592L2428.16 751.123C2409.22 782.572 2385.42 810.372 2356.77 833.93L2356.77 833.931C2319.59 864.761 2276.79 887.03 2229.75 901.47L2229.75 901.471C2183.89 915.647 2135.66 922.353 2085.66 922.353C2062.21 922.352 2038.41 919.357 2014.69 914.266L2012.39 913.767C2012.28 913.742 2012.17 913.717 2012.06 913.692C1991.66 909.121 1971.13 903.605 1950.48 897.18L1946.35 895.883C1945.89 895.74 1945.44 895.592 1944.99 895.442C1925.21 888.847 1905.94 881.909 1887.19 874.618L1883.45 873.156C1883.13 873.031 1882.81 872.904 1882.5 872.775L1881.55 872.385C1863.88 864.997 1847.67 857.916 1833.01 851.151L1830.1 849.803C1793.48 832.772 1771.76 794.335 1776.04 754.18L1797.62 552.161L1797.79 550.662C1800.01 532.591 1807.36 515.839 1818.61 502.177C1809.55 487.189 1801.86 471.349 1795.5 454.776C1795.45 454.643 1795.4 454.51 1795.35 454.377C1781.82 418.619 1775.51 381.046 1775.51 342.515L1775.52 340.107ZM2160.19 576.767C2160.02 585.505 2157.24 592.25 2151.86 597L2151.33 597.456C2145.87 602.137 2139.18 605.744 2131.26 608.277C2123.42 610.566 2115.08 612.037 2106.26 612.69L2103.5 612.788C2095.85 613.049 2089.26 613.181 2083.7 613.181V538.879C2087.33 539.042 2091.09 539.292 2094.98 539.63C2102.5 540.284 2110.18 541.428 2118.02 543.062C2125.87 544.37 2132.9 546.495 2139.11 549.437C2145.32 552.052 2150.39 555.648 2154.31 560.225C2158.23 564.474 2160.19 569.704 2160.19 575.915L2160.19 576.767ZM1869.93 345.145C1870.21 372.26 1874.78 397.535 1883.64 420.969C1892.8 444.832 1905.55 465.589 1921.89 483.241C1938.56 500.566 1958.34 514.133 1981.22 523.939C2004.43 533.746 2030.09 538.649 2058.2 538.649H2073.9C2077.05 538.649 2080.32 538.727 2083.7 538.879V613.181C2051.01 613.181 2017.67 608.931 1983.67 600.432C1950 591.606 1919.28 578.857 1891.49 562.186L1869.91 764.205C1883.97 770.743 1899.99 777.771 1917.97 785.289C1936.27 792.481 1955.23 799.346 1974.85 805.884C1994.46 812.095 2013.75 817.325 2032.71 821.574C2051.99 825.824 2069.65 827.948 2085.66 827.948C2127.18 827.948 2165.92 822.392 2201.87 811.277C2237.59 800.337 2268.72 784.011 2295.25 762.301L2296.51 761.263C2323.64 739.034 2344.89 711.248 2360.25 677.905C2375.7 644.762 2383.54 606.233 2383.78 562.319L2383.79 560.225C2383.79 534.073 2379.87 510.21 2372.02 488.635C2364.5 466.733 2353.39 447.937 2338.68 432.246C2324.29 416.555 2306.64 403.97 2285.72 394.49C2264.8 385.01 2241.26 379.453 2215.11 377.818C2209.88 377.165 2203.18 377.001 2195.01 377.328H2168.53C2160.24 377.042 2151.82 376.506 2143.27 375.72L2139.6 375.367C2130.71 374.448 2122.4 372.953 2114.66 370.885L2113.12 370.464C2105.52 367.93 2099.15 364.63 2094 360.562L2093.51 360.167C2088.6 355.591 2085.99 349.706 2085.66 342.515C2085.34 336.304 2086.97 330.909 2090.57 326.333C2094.05 321.9 2098.61 318.387 2104.24 315.794L2104.79 315.546C2110.3 312.788 2116.54 310.604 2123.49 308.995L2124.89 308.682C2132.41 307.047 2139.76 305.903 2146.96 305.249C2154.47 304.268 2161.5 303.777 2168.04 303.777C2174.9 303.45 2180.46 303.287 2184.71 303.287C2207.92 303.287 2231.62 305.903 2255.81 311.133C2280.33 316.036 2303.7 322.247 2325.93 329.766L2344.56 130.688C2330.18 123.824 2314.98 118.103 2298.96 113.526C2282.94 108.95 2266.43 105.191 2249.44 102.249C2232.76 99.307 2215.93 97.3459 2198.93 96.3652C2181.93 95.0577 2165.42 94.4033 2149.41 94.4033C2113.45 94.4033 2078.63 100.124 2044.97 111.565L2043.39 112.105C2010.36 123.524 1980.98 139.852 1955.23 161.09L1954.03 162.089C1928.76 183.151 1908.41 208.806 1892.96 239.054C1877.6 269.455 1869.91 303.942 1869.91 342.515L1869.93 345.145Z" fill="black"/>
<path d="M1658.62 35.3096C1683.64 35.5793 1707.55 45.776 1725.08 63.6846C1742.88 81.8774 1752.58 106.487 1751.98 131.934L1747.07 339.837C1745.9 389.623 1706.25 429.935 1656.5 431.938L1597.53 434.312L1583.26 802.188C1581.36 850.969 1542.59 890.263 1493.84 892.805L1286.92 903.592C1261.73 904.905 1237.07 896.086 1218.42 879.101C1200.07 862.381 1189.06 839.117 1187.73 814.358L1187.68 813.179L1182.31 682.063L1193.74 561.205L1177.36 561.205L1172.96 453.676L1122.31 456.396C1096.01 457.807 1070.32 448.172 1051.44 429.816C1032.56 411.461 1022.21 386.053 1022.87 359.729L1028.39 142.819L1030.95 111.075H1030.77C1039.81 68.3095 1077.72 36.3682 1122.96 36.2852L1657.43 35.3047L1658.62 35.3096ZM1123.13 130.688L1117.25 362.128L1263.37 354.282L1282 809.315L1488.92 798.528L1506.58 343.495L1652.7 337.611L1657.6 129.708L1123.13 130.688Z" fill="black"/>
<path d="M1030.95 16.6709C1057.3 16.6709 1082.46 27.689 1100.33 47.0596C1118.2 66.4301 1127.16 92.3897 1125.05 118.66L1124.08 130.687L1123.13 130.688L1122.7 147.819L1096.98 466.802H1193.74C1220.32 466.802 1245.68 478.01 1263.57 497.673C1265.69 500.003 1267.68 502.427 1269.54 504.932L1276.89 684.594L1267.13 787.806C1262.81 833.486 1226.27 869.445 1180.52 873.03L767.659 905.393C741.053 907.478 714.808 898.204 695.417 879.867C676.027 861.53 665.305 835.843 665.903 809.162L666.328 790.152L753.417 778.915L672.814 500.73L681.593 108.96L681.627 107.76C683.398 57.0215 725.06 16.671 775.973 16.6709H1030.95ZM775.972 111.075L760.283 811.277L1173.15 778.915L1193.74 561.205H994.663L1030.95 111.075H775.972Z" fill="black"/>
<path d="M557.438 24.6357C600.828 22.4507 640.057 50.1533 652.57 91.665L652.861 92.6475L767.518 488.364L760.283 811.277L844.23 804.696C841.643 813.809 837.677 822.575 832.372 830.668C817.262 853.719 792.834 869.016 765.499 872.543L522.292 903.924C482.977 908.997 445.61 889.031 427.343 855.548C409.779 887.728 374.442 907.636 336.379 904.353L335.265 904.25L85.1931 879.733C57.1239 876.982 31.7553 861.823 16.0319 838.409C0.308616 814.995 -4.12259 785.776 3.95185 758.753L199.106 105.623L199.379 104.728C211.088 66.8993 245.195 40.3603 284.81 38.3652L557.438 24.6357ZM289.558 132.65L94.404 785.779L344.476 810.297L368.993 699.48H480.791L510.211 810.297L753.417 778.915L562.186 118.921L289.558 132.65ZM463.138 549.437H389.588L425.873 378.8L463.138 549.437Z" fill="black"/>
<path d="M3773.25 1087.74C3773.25 1106.51 3770.44 1123.16 3764.83 1137.68C3759.21 1152.2 3751.47 1164.88 3741.6 1175.72C3731.92 1186.56 3720.49 1195.76 3707.33 1203.31C3694.17 1210.86 3680.03 1217.05 3664.94 1221.89C3650.03 1226.54 3634.54 1230.02 3618.47 1232.35C3602.41 1234.48 3586.63 1235.64 3571.14 1235.83V1371.15H3435.82C3435.82 1326.82 3435.92 1282.68 3436.11 1238.73C3436.31 1194.79 3436.6 1150.46 3436.99 1105.74C3437.37 1082.12 3437.47 1058.5 3437.28 1034.89C3437.08 1011.27 3437.57 987.458 3438.73 963.453C3463.51 956.096 3488.29 950.579 3513.07 946.901C3537.84 943.223 3563.4 941.384 3589.73 941.384C3604.63 941.384 3619.54 942.642 3634.45 945.159C3649.35 947.482 3663.58 951.257 3677.13 956.484C3690.88 961.711 3703.56 968.292 3715.17 976.23C3726.98 983.973 3737.14 993.265 3745.66 1004.11C3754.18 1014.95 3760.86 1027.34 3765.7 1041.28C3770.73 1055.02 3773.25 1070.51 3773.25 1087.74ZM3644.32 1097.61C3644.32 1085.03 3640.45 1075.25 3632.7 1068.28C3625.15 1061.12 3615.28 1057.54 3603.08 1057.54C3599.02 1057.54 3594.76 1057.92 3590.31 1058.7C3586.05 1059.28 3581.98 1060.05 3578.11 1061.02L3574.63 1145.81C3577.34 1146.2 3579.95 1146.39 3582.47 1146.39C3584.98 1146.39 3587.6 1146.39 3590.31 1146.39C3597.28 1146.39 3603.96 1145.23 3610.34 1142.91C3616.93 1140.59 3622.73 1137.29 3627.77 1133.04C3632.8 1128.58 3636.77 1123.45 3639.67 1117.65C3642.77 1111.64 3644.32 1104.97 3644.32 1097.61Z" fill="url(#paint7_linear_58_694)"/>
<path d="M3418.98 1087.74C3418.98 1106.51 3416.17 1123.16 3410.56 1137.68C3404.95 1152.2 3397.2 1164.88 3387.33 1175.72C3377.65 1186.56 3366.23 1195.76 3353.07 1203.31C3339.9 1210.86 3325.77 1217.05 3310.67 1221.89C3295.76 1226.54 3280.28 1230.02 3264.21 1232.35C3248.14 1234.48 3232.36 1235.64 3216.88 1235.83V1371.15H3081.56C3081.56 1326.82 3081.66 1282.68 3081.85 1238.73C3082.04 1194.79 3082.33 1150.46 3082.72 1105.74C3083.11 1082.12 3083.2 1058.5 3083.01 1034.89C3082.82 1011.27 3083.3 987.458 3084.46 963.453C3109.24 956.096 3134.02 950.579 3158.8 946.901C3183.58 943.223 3209.13 941.384 3235.46 941.384C3250.37 941.384 3265.27 942.642 3280.18 945.159C3295.09 947.482 3309.31 951.257 3322.87 956.484C3336.61 961.711 3349.29 968.292 3360.91 976.23C3372.71 983.973 3382.88 993.265 3391.4 1004.11C3399.91 1014.95 3406.59 1027.34 3411.43 1041.28C3416.47 1055.02 3418.98 1070.51 3418.98 1087.74ZM3290.05 1097.61C3290.05 1085.03 3286.18 1075.25 3278.44 1068.28C3270.89 1061.12 3261.01 1057.54 3248.82 1057.54C3244.75 1057.54 3240.49 1057.92 3236.04 1058.7C3231.78 1059.28 3227.72 1060.05 3223.85 1061.02L3220.36 1145.81C3223.07 1146.2 3225.68 1146.39 3228.2 1146.39C3230.72 1146.39 3233.33 1146.39 3236.04 1146.39C3243.01 1146.39 3249.69 1145.23 3256.08 1142.91C3262.66 1140.59 3268.47 1137.29 3273.5 1133.04C3278.53 1128.58 3282.5 1123.45 3285.41 1117.65C3288.5 1111.64 3290.05 1104.97 3290.05 1097.61Z" fill="url(#paint8_linear_58_694)"/>
<path d="M3074.59 1342.11L2930.56 1360.69L2913.14 1295.07H2846.93L2832.41 1360.69L2684.32 1346.18L2799.89 959.388L2961.34 951.257L3074.59 1342.11ZM2902.68 1206.21L2880.61 1105.16L2859.13 1206.21H2902.68Z" fill="url(#paint9_linear_58_694)"/>
<path d="M2569.91 1307.85C2560.81 1319.27 2549.58 1329.24 2536.22 1337.75C2522.86 1346.27 2508.54 1353.34 2493.25 1358.95C2477.95 1364.57 2462.27 1368.73 2446.2 1371.44C2430.14 1374.34 2414.84 1375.79 2400.32 1375.79C2372.25 1375.79 2346.41 1370.76 2322.79 1360.69C2299.17 1350.63 2278.75 1336.79 2261.52 1319.17C2244.49 1301.36 2231.13 1280.45 2221.45 1256.45C2211.77 1232.44 2206.93 1206.6 2206.93 1178.92C2206.93 1157.81 2209.35 1137.2 2214.19 1117.06C2219.03 1096.74 2225.9 1077.67 2234.81 1059.86C2243.9 1041.86 2254.94 1025.4 2267.91 1010.49C2280.88 995.395 2295.59 982.424 2312.05 971.583C2328.5 960.742 2346.51 952.321 2366.06 946.32C2385.61 940.319 2406.52 937.318 2428.78 937.318C2437.11 937.318 2446.01 937.706 2455.5 938.48C2464.98 939.061 2474.37 940.222 2483.66 941.964C2493.15 943.513 2502.34 945.739 2511.25 948.643C2520.15 951.547 2528.29 955.128 2535.64 959.387L2527.51 1070.31C2516.67 1066.25 2505.44 1063.54 2493.83 1062.18C2482.4 1060.63 2471.18 1059.86 2460.14 1059.86C2444.66 1059.86 2430.14 1062.28 2416.58 1067.12C2403.23 1071.77 2391.52 1078.54 2381.45 1087.45C2371.58 1096.35 2363.74 1107.19 2357.93 1119.97C2352.12 1132.75 2349.22 1147.17 2349.22 1163.24C2349.22 1173.3 2350.57 1183.08 2353.28 1192.56C2355.99 1201.86 2360.06 1210.18 2365.48 1217.54C2371.09 1224.7 2377.96 1230.51 2386.09 1234.96C2394.42 1239.41 2404 1241.64 2414.84 1241.64C2422.2 1241.64 2429.75 1240.67 2437.49 1238.73C2445.43 1236.8 2452.21 1233.51 2457.82 1228.86L2458.98 1206.21L2389.29 1205.05L2392.77 1117.94C2421.62 1116.97 2450.46 1116.19 2479.31 1115.61C2508.15 1114.84 2537.19 1113.87 2566.42 1112.71L2569.91 1307.85Z" fill="url(#paint10_linear_58_694)"/>
<path d="M2195.6 950.676L2174.7 1344.43L2022.54 1358.37L1941.23 1147.55L1928.45 1362.44H1797.78L1808.23 950.676L1953.43 943.707L2053.9 1152.78L2058.54 955.322L2195.6 950.676Z" fill="url(#paint11_linear_58_694)"/>
<path d="M1780.36 958.226L1748.42 1353.73L1625.88 1360.11V966.356L1780.36 958.226Z" fill="url(#paint12_linear_58_694)"/>
<path d="M1626.46 951.257L1486.49 1144.65L1604.39 1350.24L1469.65 1374.05L1381.37 1248.61L1376.73 1379.86L1255.93 1384.51L1265.22 939.642L1400.54 947.192L1390.09 1078.44L1480.1 939.642L1626.46 951.257Z" fill="url(#paint13_linear_58_694)"/>
<path d="M1237.93 1087.16C1237.93 1102.26 1236.57 1116 1233.86 1128.39C1231.35 1140.59 1227.28 1151.81 1221.67 1162.07C1216.05 1172.33 1208.79 1181.82 1199.89 1190.53C1190.98 1199.24 1180.24 1207.57 1167.66 1215.5L1236.77 1338.63L1106.09 1364.18L1061.38 1240.48L1025.37 1241.64L1020.14 1362.44H895.277C896.245 1318.3 897.116 1274.35 897.891 1230.6C898.859 1186.85 899.923 1142.91 901.085 1098.77C901.472 1076.51 901.859 1054.44 902.247 1032.56C902.634 1010.69 903.408 988.619 904.57 966.357C918.121 961.323 931.478 957.161 944.642 953.87C957.806 950.579 970.97 948.063 984.134 946.32C997.492 944.384 1010.95 943.126 1024.5 942.545C1038.24 941.771 1052.28 941.384 1066.6 941.384C1088.67 941.384 1109.97 944.481 1130.49 950.676C1151.2 956.677 1169.49 965.776 1185.37 977.972C1201.24 990.168 1213.92 1005.36 1223.41 1023.56C1233.09 1041.76 1237.93 1062.96 1237.93 1087.16ZM1107.84 1096.45C1107.84 1088.32 1106.68 1080.86 1104.35 1074.09C1102.22 1067.31 1098.93 1061.5 1094.48 1056.67C1090.22 1051.63 1084.8 1047.76 1078.22 1045.05C1071.83 1042.15 1064.28 1040.69 1055.57 1040.69C1051.7 1040.69 1047.92 1040.98 1044.24 1041.57C1040.56 1041.95 1036.98 1042.63 1033.5 1043.6L1028.85 1151.62H1035.82C1044.15 1151.62 1052.57 1150.56 1061.09 1148.43C1069.8 1146.3 1077.54 1143.01 1084.32 1138.55C1091.28 1134.1 1096.9 1128.39 1101.16 1121.42C1105.61 1114.45 1107.84 1106.13 1107.84 1096.45Z" fill="url(#paint14_linear_58_694)"/>
<path d="M891.503 1342.11L747.474 1360.69L730.051 1295.07H663.844L649.325 1360.69L501.23 1346.18L616.802 959.388L778.254 951.257L891.503 1342.11ZM719.597 1206.21L697.528 1105.16L676.04 1206.21H719.597Z" fill="url(#paint15_linear_58_694)"/>
<path d="M540.138 1087.74C540.138 1106.51 537.331 1123.16 531.717 1137.68C526.103 1152.2 518.36 1164.88 508.487 1175.72C498.807 1186.56 487.386 1195.76 474.222 1203.31C461.058 1210.86 446.926 1217.05 431.826 1221.89C416.92 1226.54 401.433 1230.02 385.365 1232.35C369.297 1234.48 353.52 1235.64 338.033 1235.83V1371.15H202.715C202.715 1326.82 202.812 1282.68 203.005 1238.73C203.199 1194.79 203.489 1150.46 203.876 1105.74C204.264 1082.12 204.36 1058.5 204.167 1034.89C203.973 1011.27 204.457 987.458 205.619 963.453C230.398 956.096 255.177 950.579 279.956 946.901C304.736 943.223 330.289 941.384 356.617 941.384C371.523 941.384 386.43 942.642 401.336 945.159C416.242 947.482 430.471 951.257 444.022 956.484C457.767 961.711 470.447 968.292 482.062 976.23C493.871 983.973 504.034 993.265 512.552 1004.11C521.07 1014.95 527.749 1027.34 532.588 1041.28C537.622 1055.02 540.138 1070.51 540.138 1087.74ZM411.209 1097.61C411.209 1085.03 407.337 1075.25 399.594 1068.28C392.044 1061.12 382.171 1057.54 369.975 1057.54C365.909 1057.54 361.65 1057.92 357.198 1058.7C352.939 1059.28 348.874 1060.05 345.002 1061.02L341.517 1145.81C344.227 1146.2 346.841 1146.39 349.358 1146.39C351.874 1146.39 354.488 1146.39 357.198 1146.39C364.167 1146.39 370.846 1145.23 377.234 1142.91C383.816 1140.59 389.624 1137.29 394.657 1133.04C399.69 1128.58 403.659 1123.45 406.563 1117.65C409.66 1111.64 411.209 1104.97 411.209 1097.61Z" fill="url(#paint16_linear_58_694)"/>
<path d="M3409.03 863.419L3438.73 963.453L3438.52 967.951C3437.51 990.433 3437.1 1012.75 3437.28 1034.89C3437.47 1058.5 3437.37 1082.12 3436.99 1105.74C3436.6 1150.46 3436.31 1194.79 3436.12 1238.73L3436.05 1255.22C3435.9 1293.72 3435.82 1332.36 3435.82 1371.15H3571.14V1235.83C3586.63 1235.64 3602.41 1234.48 3618.48 1232.35C3634.54 1230.02 3650.03 1226.54 3664.94 1221.89C3680.04 1217.05 3694.17 1210.86 3707.33 1203.31C3720.5 1195.76 3731.92 1186.56 3741.6 1175.72C3751.16 1165.22 3758.73 1152.99 3764.29 1139.04L3764.83 1137.68C3770.27 1123.62 3773.07 1107.55 3773.24 1089.49L3773.25 1087.74C3773.25 1070.51 3770.73 1055.02 3765.7 1041.28C3761.01 1027.77 3754.6 1015.72 3746.46 1005.13L3745.66 1004.11C3737.15 993.266 3726.98 983.973 3715.17 976.229C3703.92 968.54 3691.67 962.123 3678.42 956.978L3677.13 956.483C3664.01 951.42 3650.24 947.719 3635.84 945.381L3634.45 945.158C3619.54 942.642 3604.63 941.384 3589.73 941.384C3563.4 941.384 3537.85 943.223 3513.07 946.901L3510.74 947.251C3486.74 950.926 3462.73 956.327 3438.73 963.453L3409.03 863.419C3438.37 854.708 3467.95 848.105 3497.75 843.683C3527.85 839.214 3558.53 837.034 3589.73 837.034C3610.31 837.034 3630.81 838.758 3651.16 842.156C3672.74 845.564 3693.82 851.117 3714.22 858.949C3714.38 859.008 3714.53 859.066 3714.69 859.125L3714.68 859.126C3735.32 867.012 3754.95 877.118 3773.31 889.574C3793.31 902.822 3811.1 918.919 3826.24 937.775L3827.71 939.637C3843.65 959.914 3855.58 982.338 3863.93 1006.07C3873.67 1032.94 3877.6 1060.62 3877.6 1087.74L3877.59 1090.46C3877.32 1118.66 3872.91 1147.49 3862.16 1175.31C3852.18 1201.11 3837.83 1225.03 3818.75 1245.98C3801.44 1265.2 3781.4 1281.12 3759.25 1293.83C3739.45 1305.18 3718.55 1314.29 3696.79 1321.26C3696.52 1321.35 3696.25 1321.43 3695.99 1321.51C3689.21 1323.63 3682.38 1325.55 3675.49 1327.3V1371.15L3675.48 1372.5C3674.76 1429.51 3628.32 1475.5 3571.14 1475.5H3435.83C3378.19 1475.5 3331.48 1428.78 3331.48 1371.15L3331.48 1354.48C3331.5 1315.59 3331.6 1276.86 3331.77 1238.27C3331.8 1230.17 3331.84 1222.05 3331.88 1213.92C3339.2 1210.75 3346.26 1207.21 3353.07 1203.31C3366.23 1195.76 3377.65 1186.56 3387.33 1175.72C3397.2 1164.88 3404.95 1152.2 3410.56 1137.68C3416.18 1123.16 3418.98 1106.51 3418.98 1087.74C3418.98 1070.51 3416.47 1055.02 3411.43 1041.28C3406.59 1027.34 3399.92 1014.95 3391.4 1004.11C3382.88 993.266 3372.72 983.973 3360.91 976.229C3352.6 970.556 3343.76 965.575 3334.37 961.286C3334.41 960.327 3334.46 959.368 3334.5 958.409C3336.64 914.129 3366.53 876.036 3409.03 863.419ZM3603.08 1057.54C3615.28 1057.54 3625.15 1061.12 3632.7 1068.28C3640.45 1075.25 3644.32 1085.03 3644.32 1097.61C3644.32 1104.97 3642.77 1111.64 3639.67 1117.65C3636.77 1123.45 3632.8 1128.58 3627.77 1133.04C3622.73 1137.29 3616.93 1140.59 3610.34 1142.91C3603.96 1145.23 3597.28 1146.39 3590.31 1146.39H3582.47L3581.52 1146.38C3579.61 1146.35 3577.65 1146.2 3575.64 1145.95L3574.63 1145.81L3575.22 1131.37C3575.71 1131.35 3576.2 1131.33 3576.7 1131.32L3582.47 1090.92L3582.47 1081.83L3577.49 1076.2L3577.59 1073.73L3582.47 1079.5V1078.45L3578.11 1061.02L3586.69 1061.37L3587 1059.19C3587.57 1059.1 3588.14 1059.01 3588.72 1058.92L3590.31 1058.7C3594.76 1057.92 3599.02 1057.54 3603.08 1057.54ZM3582.47 1090.92L3582.72 1089.17L3582.47 1089.04V1090.92ZM3582.47 1089.04L3582.72 1089.17L3582.84 1088.31L3582.47 1088.12V1089.04ZM3582.47 1088.12L3582.84 1088.31L3583.59 1083.09L3582.47 1081.83L3582.47 1088.12ZM3582.47 1079.5L3582.84 1079.94L3582.47 1078.45V1079.5Z" fill="black"/>
<path d="M3418.98 1087.74C3418.98 1070.51 3416.47 1055.02 3411.43 1041.28C3406.75 1027.77 3400.33 1015.72 3392.19 1005.13L3391.4 1004.11C3382.88 993.266 3372.72 983.973 3360.91 976.229C3349.65 968.54 3337.4 962.123 3324.15 956.978L3322.87 956.483C3309.74 951.42 3295.98 947.719 3281.58 945.381L3280.18 945.158C3265.27 942.642 3250.37 941.384 3235.46 941.384C3209.13 941.384 3183.58 943.223 3158.8 946.901L3156.48 947.251C3132.47 950.926 3108.47 956.327 3084.46 963.453C3083.3 987.458 3082.82 1011.27 3083.01 1034.89C3083.21 1058.5 3083.11 1082.12 3082.72 1105.74L3082.58 1122.49C3082.26 1161.54 3082.02 1200.28 3081.85 1238.73L3081.78 1255.22C3081.63 1293.72 3081.56 1332.36 3081.56 1371.15H3216.88V1235.83C3232.36 1235.64 3248.14 1234.48 3264.21 1232.35C3280.28 1230.02 3295.76 1226.54 3310.67 1221.89C3325.77 1217.05 3339.9 1210.86 3353.07 1203.31C3366.23 1195.76 3377.65 1186.56 3387.33 1175.72C3396.9 1165.22 3404.46 1152.99 3410.03 1139.04L3410.56 1137.68C3416 1123.62 3418.81 1107.55 3418.98 1089.49L3418.98 1087.74ZM3248.82 1057.54C3261.02 1057.54 3270.89 1061.12 3278.44 1068.28C3286.18 1075.25 3290.05 1085.03 3290.05 1097.61C3290.05 1104.97 3288.51 1111.64 3285.41 1117.65C3282.5 1123.45 3278.54 1128.58 3273.5 1133.04C3268.47 1137.29 3262.66 1140.59 3256.08 1142.91C3249.69 1145.23 3243.01 1146.39 3236.04 1146.39H3228.2L3227.25 1146.38C3225.35 1146.35 3223.39 1146.2 3221.37 1145.95L3220.36 1145.81L3220.96 1131.37C3221.45 1131.35 3221.94 1131.33 3222.43 1131.32L3228.2 1090.92L3228.2 1081.83L3223.22 1076.2L3223.32 1073.73L3228.2 1079.5V1078.45L3223.85 1061.02L3232.42 1061.37L3232.74 1059.19C3233.3 1059.1 3233.88 1059.01 3234.46 1058.92L3236.04 1058.7C3240.5 1057.92 3244.75 1057.54 3248.82 1057.54ZM3228.2 1090.92L3228.45 1089.17L3228.2 1089.04V1090.92ZM3228.2 1089.04L3228.45 1089.17L3228.58 1088.31L3228.2 1088.12V1089.04ZM3228.2 1088.12L3228.58 1088.31L3229.32 1083.09L3228.2 1081.83L3228.2 1088.12ZM3228.2 1079.5L3228.58 1079.94L3228.2 1078.45V1079.5ZM3437.28 1034.89C3437.47 1058.5 3437.37 1082.12 3436.99 1105.74C3436.6 1150.46 3436.31 1194.79 3436.12 1238.73C3436.07 1250.07 3436.02 1261.43 3435.99 1272.79C3426.21 1280.58 3415.85 1287.59 3404.98 1293.83C3385.18 1305.18 3364.29 1314.29 3342.52 1321.26C3342.25 1321.35 3341.99 1321.43 3341.72 1321.51C3334.95 1323.63 3328.11 1325.55 3321.23 1327.3V1371.15L3321.22 1372.5C3320.5 1429.51 3274.06 1475.5 3216.88 1475.5H3081.56C3023.93 1475.5 2977.21 1428.78 2977.21 1371.15L2977.21 1354.67L3074.59 1342.11L2978.69 1011.13C2978.87 993.632 2979.38 976.057 2980.24 958.409C2982.38 914.129 3012.27 876.036 3054.77 863.419C3084.11 854.708 3113.69 848.105 3143.48 843.683C3173.58 839.214 3204.27 837.034 3235.46 837.034C3256.05 837.034 3276.54 838.758 3296.89 842.156C3318.47 845.564 3339.55 851.117 3359.96 858.949C3360.11 859.008 3360.27 859.066 3360.42 859.125L3360.42 859.126C3381.05 867.012 3400.69 877.118 3419.04 889.574C3439.04 902.822 3456.84 918.919 3471.97 937.775L3473.45 939.637C3476.7 943.779 3479.79 948.012 3482.71 952.326C3468.05 955.391 3453.39 959.101 3438.73 963.453C3437.57 987.458 3437.08 1011.27 3437.28 1034.89Z" fill="black"/>
<path d="M2957.23 846.988C3004.74 845.107 3047.53 875.606 3061.25 921.13L3061.57 922.216L3083.28 997.137C3083 1009.77 3082.91 1022.36 3083.01 1034.89C3083.21 1058.5 3083.11 1082.12 3082.72 1105.74C3082.33 1150.46 3082.04 1194.79 3081.85 1238.73C3081.66 1282.68 3081.56 1326.82 3081.56 1371.15H3174.82C3171.96 1381.03 3167.62 1390.53 3161.86 1399.32C3145.16 1424.79 3118.16 1441.7 3087.94 1445.6L2943.92 1464.19C2921.7 1467.05 2900.05 1462.68 2881.49 1452.79C2864.21 1462.01 2844.2 1466.45 2823.46 1464.66L2822.23 1464.55L2674.14 1450.03C2643.11 1446.99 2615.07 1430.23 2597.69 1404.35C2580.31 1378.47 2575.41 1346.17 2584.34 1316.3L2699.91 929.513L2700.21 928.522C2713.15 886.709 2750.85 857.375 2794.64 855.17L2956.09 847.039L2957.23 846.988ZM2799.89 959.388L2684.32 1346.18L2832.41 1360.69L2846.93 1295.07H2913.14L2930.56 1360.69L3074.59 1342.11L2961.34 951.257L2799.89 959.388ZM2902.69 1206.21H2859.13L2880.62 1105.16L2902.69 1206.21Z" fill="black"/>
<path d="M2428.78 832.969C2440 832.969 2451.44 833.477 2463.03 834.401C2476.02 835.242 2488.93 836.837 2501.73 839.19C2515.01 841.416 2528.1 844.533 2540.95 848.586L2543.6 849.436C2558.27 854.221 2572.72 860.416 2586.58 868.312L2587.92 869.081L2588.73 869.554C2622.83 889.705 2642.61 927.457 2639.71 967.016L2634.81 1033.89C2635.91 1034.85 2636.99 1035.83 2638.05 1036.83C2658.47 1056.1 2670.25 1082.78 2670.75 1110.85L2674.24 1305.98L2674.25 1307.12C2674.42 1330.98 2666.4 1354.18 2651.52 1372.86C2634.66 1394.03 2614.57 1411.55 2592.33 1425.74C2572.46 1438.41 2551.35 1448.78 2529.21 1456.91C2508.08 1464.67 2486.38 1470.44 2464.19 1474.23C2442.93 1478.04 2421.59 1480.14 2400.32 1480.14C2360.15 1480.14 2320.84 1472.99 2283.65 1457.44L2281.88 1456.69C2246.16 1441.47 2214.15 1419.98 2186.92 1392.13L2186.11 1391.3C2172.87 1377.45 2161.17 1362.51 2150.98 1346.61L2174.7 1344.43L2195.6 950.676L2181.5 951.153C2183.87 948.233 2186.29 945.349 2188.75 942.502C2188.85 942.385 2188.96 942.268 2189.06 942.15C2189.1 942.1 2189.15 942.048 2189.19 941.997C2208.32 919.824 2230.18 900.558 2254.64 884.445C2279.69 867.942 2306.77 855.365 2335.44 846.563C2365.75 837.26 2397.05 832.969 2428.78 832.969ZM2206.94 1181.51C2207.24 1208.21 2212.07 1233.19 2221.45 1256.45C2231.13 1280.45 2244.49 1301.36 2261.52 1319.17C2278.75 1336.79 2299.17 1350.63 2322.79 1360.69C2345.67 1370.45 2370.64 1375.47 2397.7 1375.78L2400.32 1375.79C2414.84 1375.79 2430.14 1374.34 2446.2 1371.44C2461.77 1368.81 2476.97 1364.83 2491.81 1359.47L2493.25 1358.95C2508.06 1353.51 2521.97 1346.71 2534.97 1338.55L2536.22 1337.75C2549.58 1329.24 2560.81 1319.27 2569.91 1307.85L2566.42 1112.71C2537.19 1113.87 2508.15 1114.84 2479.31 1115.61C2450.46 1116.19 2421.62 1116.97 2392.77 1117.94L2389.29 1205.05L2458.98 1206.21L2457.82 1228.86C2452.21 1233.51 2445.43 1236.8 2437.49 1238.73C2429.75 1240.67 2422.2 1241.64 2414.84 1241.64C2404 1241.64 2394.42 1239.41 2386.09 1234.96C2377.96 1230.51 2371.09 1224.7 2365.48 1217.54C2360.06 1210.18 2355.99 1201.86 2353.28 1192.56C2350.57 1183.08 2349.22 1173.3 2349.22 1163.24C2349.22 1147.17 2352.12 1132.75 2357.93 1119.97C2363.74 1107.19 2371.58 1096.35 2381.45 1087.45C2391.52 1078.54 2403.23 1071.77 2416.58 1067.12C2430.14 1062.28 2444.66 1059.86 2460.14 1059.86C2471.18 1059.86 2482.4 1060.63 2493.83 1062.18C2505.44 1063.54 2516.67 1066.25 2527.51 1070.31L2535.64 959.387C2528.74 955.395 2521.17 951.997 2512.91 949.195L2511.25 948.643C2502.34 945.739 2493.15 943.513 2483.66 941.964C2474.37 940.222 2464.98 939.061 2455.5 938.48C2446.01 937.706 2437.11 937.318 2428.78 937.318C2406.52 937.318 2385.61 940.319 2366.06 946.32C2346.51 952.321 2328.5 960.742 2312.05 971.583C2295.59 982.424 2280.88 995.395 2267.91 1010.49L2266.7 1011.9C2254.25 1026.43 2243.62 1042.42 2234.81 1059.86C2225.9 1077.67 2219.03 1096.74 2214.19 1117.06C2209.35 1137.2 2206.93 1157.81 2206.93 1178.92L2206.94 1181.51Z" fill="black"/>
<path d="M1949.4 839.435C1973.75 838.494 1997.08 846.084 2015.85 860.087C2027.86 854.696 2041.08 851.504 2055.01 851.032L2192.07 846.387C2221.3 845.396 2249.61 856.719 2270.1 877.6C2290.58 898.48 2301.36 927 2299.81 956.209L2298.47 981.315C2287.39 989.948 2277.2 999.675 2267.91 1010.49C2254.94 1025.4 2243.9 1041.86 2234.81 1059.86C2225.9 1077.67 2219.03 1096.74 2214.19 1117.06C2209.35 1137.2 2206.93 1157.81 2206.93 1178.92C2206.93 1206.6 2211.77 1232.44 2221.45 1256.45C2231.13 1280.45 2244.49 1301.36 2261.52 1319.17C2267.22 1325 2273.27 1330.41 2279.67 1335.41L2278.9 1349.97C2276.15 1401.72 2235.83 1443.62 2184.22 1448.35L2032.06 1462.29C2013.6 1463.98 1995.59 1460.72 1979.53 1453.45C1964.4 1461.95 1946.97 1466.79 1928.45 1466.79H1797.78C1769.65 1466.79 1742.71 1455.43 1723.07 1435.28C1703.43 1415.14 1692.75 1387.91 1693.47 1359.79L1693.55 1356.59L1748.42 1353.73L1780.36 958.226L1703.56 962.268L1703.92 948.027L1703.96 946.749C1705.99 892.692 1749.06 849.047 1803.23 846.446L1948.42 839.478L1949.4 839.435ZM1808.24 950.676L1797.78 1362.44H1928.45L1941.23 1147.55L2022.54 1358.37L2174.7 1344.43L2195.6 950.676L2058.55 955.322L2053.9 1152.78L1953.43 943.707L1808.24 950.676Z" fill="black"/>
<path d="M1774.88 854.02C1804.92 852.439 1834.19 863.907 1855.17 885.48C1871.55 902.323 1881.63 924.046 1884.11 947.035L1808.24 950.676L1797.78 1362.44L1852.4 1362.44C1848.05 1414.41 1805.97 1455.22 1753.85 1457.93L1631.31 1464.32C1602.73 1465.81 1574.79 1455.5 1554.04 1435.8C1534.43 1417.19 1522.86 1391.74 1521.64 1364.86L1604.39 1350.24L1521.53 1205.74V1096.24L1626.46 951.257L1524.12 943.136C1534.26 898.585 1572.93 864.649 1620.39 862.151L1774.88 854.02ZM1625.88 1360.11L1748.42 1353.73L1780.36 958.226L1625.88 966.356L1625.88 1360.11Z" fill="black"/>
<path d="M1431.22 847.455C1448.45 838.317 1468.21 834.02 1488.36 835.619L1634.71 847.234C1672.32 850.219 1705.38 873.266 1721.2 907.514C1729.03 924.48 1732.02 942.885 1730.36 960.856L1625.88 966.356V1130.04L1610.55 1151.22L1625.88 1177.95V1360.11L1708.59 1355.8C1707.88 1369.01 1704.67 1382.14 1698.91 1394.46C1684.5 1425.24 1656.01 1447.08 1622.55 1453L1487.81 1476.81C1467.58 1480.39 1447.22 1477.86 1429.03 1470.17C1414.75 1478.46 1398.31 1483.46 1380.74 1484.13L1259.94 1488.78C1231.21 1489.88 1203.3 1479.09 1182.8 1458.94C1162.29 1438.79 1151 1411.07 1151.6 1382.33L1152.17 1355.17L1236.77 1338.63L1167.66 1215.5C1180.24 1207.57 1190.98 1199.24 1199.89 1190.53C1208.79 1181.82 1216.05 1172.33 1221.67 1162.07C1227.28 1151.81 1231.35 1140.59 1233.86 1128.39C1236.57 1116 1237.93 1102.26 1237.93 1087.16C1237.93 1062.96 1233.09 1041.76 1223.41 1023.56C1213.92 1005.36 1201.24 990.167 1185.37 977.972C1177.62 972.015 1169.28 966.8 1160.38 962.321L1160.9 937.462L1160.93 936.137C1161.87 908.325 1173.88 882.016 1194.32 863.083C1215.08 843.849 1242.77 833.877 1271.04 835.454L1406.35 843.004C1414.87 843.479 1423.21 844.991 1431.22 847.455ZM1390.09 1078.44L1400.54 947.191L1265.22 939.641L1255.93 1384.51L1376.73 1379.86L1381.38 1248.61L1469.65 1374.05L1604.39 1350.24L1486.49 1144.65L1626.46 951.257L1480.11 939.641L1390.09 1078.44Z" fill="black"/>
<path d="M1237.93 1087.16C1237.93 1062.96 1233.09 1041.76 1223.41 1023.56C1214.22 1005.93 1202.03 991.121 1186.85 979.124L1185.37 977.972C1169.49 965.776 1151.2 956.677 1130.48 950.676C1109.96 944.481 1088.67 941.384 1066.6 941.384C1052.27 941.384 1038.24 941.771 1024.49 942.545C1010.94 943.126 997.49 944.384 984.133 946.32C970.969 948.063 957.804 950.579 944.64 953.87L942.17 954.497C929.806 957.684 917.271 961.638 904.567 966.356C903.406 988.619 902.632 1010.69 902.245 1032.56L901.083 1098.77C899.921 1142.91 898.856 1186.85 897.888 1230.6C897.114 1274.35 896.243 1318.3 895.275 1362.44H1020.14L1025.37 1241.64L1061.37 1240.48L1106.09 1364.18L1236.76 1338.63L1167.65 1215.5C1179.84 1207.81 1190.31 1199.76 1199.05 1191.35L1199.89 1190.53C1208.79 1181.82 1216.05 1172.33 1221.66 1162.07C1227.28 1151.81 1231.34 1140.59 1233.86 1128.39C1236.49 1116.39 1237.84 1103.11 1237.92 1088.57L1237.93 1087.16ZM1028.85 1151.62L1033.5 1043.6C1036.98 1042.63 1040.56 1041.95 1044.24 1041.57C1047.92 1040.98 1051.69 1040.69 1055.57 1040.69C1064.28 1040.69 1071.83 1042.15 1078.22 1045.05C1084.8 1047.76 1090.22 1051.63 1094.48 1056.67C1098.93 1061.5 1102.22 1067.31 1104.35 1074.09C1106.67 1080.86 1107.83 1088.32 1107.83 1096.45C1107.83 1106.13 1105.61 1114.45 1101.16 1121.42C1096.9 1128.39 1091.28 1134.1 1084.31 1138.55C1077.54 1143.01 1069.79 1146.3 1061.08 1148.43C1052.57 1150.56 1044.14 1151.62 1035.82 1151.62H1028.85ZM1265.22 939.642L1255.93 1384.51L1331.86 1381.58C1331.73 1381.86 1331.61 1382.14 1331.48 1382.42C1317.43 1412.81 1289.65 1434.61 1256.79 1441.04L1126.12 1466.59C1103.44 1471.02 1080.83 1467.74 1061.21 1458.38C1048.59 1463.79 1034.7 1466.79 1020.14 1466.79H895.275C867.203 1466.79 840.315 1455.48 820.684 1435.41C801.053 1415.34 790.335 1388.21 790.951 1360.15C790.988 1358.46 791.023 1356.76 791.06 1355.07L891.501 1342.11L798.133 1019.88C798.586 1000.35 799.328 980.693 800.36 960.92L800.415 959.946C802.946 918.777 829.511 882.92 868.234 868.537C885.162 862.25 902.2 856.92 919.332 852.637C936.014 848.466 952.826 845.234 969.753 842.967C986.141 840.611 1002.63 839.067 1019.2 838.33C1034.79 837.463 1050.59 837.034 1066.6 837.034C1098.27 837.034 1129.44 841.462 1159.75 850.516C1191.91 859.86 1222.03 874.553 1248.94 895.225C1266.36 908.611 1281.58 924.053 1294.51 941.276L1265.22 939.642Z" fill="black"/>
<path d="M774.137 846.988C821.646 845.107 864.436 875.606 878.158 921.13L878.48 922.216L902.89 1006.46C902.615 1015.19 902.4 1023.89 902.247 1032.56C901.859 1054.44 901.472 1076.51 901.085 1098.77C899.923 1142.91 898.858 1186.85 897.89 1230.6C897.115 1274.35 896.244 1318.3 895.276 1362.44H993.85C991.268 1375.44 986.208 1387.97 978.774 1399.32C962.072 1424.79 935.07 1441.7 904.856 1445.6L760.826 1464.19C738.61 1467.05 716.956 1462.68 698.399 1452.79C680.774 1462.19 660.318 1466.62 639.142 1464.55L491.047 1450.03C460.021 1446.99 431.98 1430.23 414.6 1404.35C397.22 1378.47 392.322 1346.17 401.247 1316.3L429.217 1222.69C430.089 1222.43 430.959 1222.16 431.827 1221.89C446.927 1217.05 461.06 1210.86 474.224 1203.31C487.388 1195.76 498.809 1186.56 508.488 1175.72C518.361 1164.88 526.105 1152.2 531.719 1137.68C537.333 1123.16 540.14 1106.51 540.14 1087.74C540.14 1070.51 537.623 1055.02 532.59 1041.28C527.75 1027.34 521.072 1014.95 512.554 1004.11C508.405 998.826 503.865 993.913 498.935 989.367L516.819 929.513L517.12 928.522C530.064 886.709 567.764 857.375 611.553 855.17L773.005 847.039L774.137 846.988ZM616.801 959.388L501.229 1346.18L649.323 1360.69L663.843 1295.07H730.05L747.473 1360.69L891.502 1342.11L778.253 951.257L616.801 959.388ZM719.596 1206.21H676.038L697.526 1105.16L719.596 1206.21Z" fill="black"/>
<path d="M540.14 1087.74C540.14 1070.51 537.623 1055.02 532.59 1041.28C527.901 1027.77 521.487 1015.72 513.347 1005.13L512.554 1004.11C504.036 993.265 493.872 983.973 482.063 976.229C470.448 968.292 457.768 961.71 444.023 956.483C430.896 951.42 417.133 947.719 402.733 945.381L401.338 945.158C387.363 942.799 373.389 941.546 359.414 941.398L356.619 941.384C330.291 941.384 304.737 943.223 279.958 946.901C255.179 950.58 230.399 956.097 205.62 963.453C204.459 987.458 203.975 1011.27 204.169 1034.89C204.363 1058.5 204.265 1082.12 203.878 1105.74C203.491 1150.46 203.2 1194.79 203.007 1238.73C202.813 1282.68 202.717 1326.82 202.717 1371.15H338.034V1235.83C353.521 1235.64 369.299 1234.48 385.366 1232.35C401.434 1230.02 416.921 1226.54 431.827 1221.89C446.455 1217.2 460.175 1211.24 472.986 1204.01L474.224 1203.31C487.388 1195.76 498.809 1186.56 508.488 1175.72C518.053 1165.22 525.619 1152.99 531.187 1139.04L531.719 1137.68C537.157 1123.62 539.962 1107.55 540.132 1089.49L540.14 1087.74ZM369.977 1057.54C382.172 1057.54 392.046 1061.12 399.596 1068.28C407.339 1075.25 411.211 1085.03 411.211 1097.61C411.211 1104.97 409.662 1111.64 406.564 1117.65C403.661 1123.45 399.692 1128.58 394.659 1133.04C389.626 1137.29 383.818 1140.59 377.236 1142.91C370.848 1145.23 364.168 1146.39 357.199 1146.39H349.359L348.411 1146.38C346.506 1146.35 344.546 1146.2 342.531 1145.95L341.519 1145.81L342.112 1131.37C342.354 1131.36 342.596 1131.35 342.838 1131.34L343.727 1130.36L349.359 1090.93V1081.83L344.38 1076.2L344.48 1073.73L349.359 1079.5V1078.44L345.004 1061.02L353.581 1061.37L353.893 1059.19C354.462 1059.1 355.035 1059.01 355.611 1058.92L357.199 1058.7C361.652 1057.92 365.911 1057.54 369.977 1057.54ZM342.838 1131.34C343.088 1131.34 343.338 1131.32 343.589 1131.32L343.727 1130.36L342.838 1131.34ZM349.359 1090.93L349.61 1089.17L349.359 1089.04V1090.93ZM349.359 1089.04L349.61 1089.17L350.479 1083.09L349.359 1081.83V1089.04ZM349.359 1079.5L349.734 1079.94L349.359 1078.44V1079.5ZM614.004 968.745L515.06 1299.89C498.592 1308.47 481.426 1315.57 463.677 1321.26C463.411 1321.35 463.145 1321.43 462.879 1321.51C456.103 1323.63 449.27 1325.55 442.384 1327.3V1371.15L442.375 1372.5C441.653 1429.51 395.215 1475.5 338.034 1475.5H202.717C145.086 1475.5 98.3672 1428.78 98.3672 1371.15L98.3721 1354.48C98.3933 1315.59 98.4882 1276.86 98.6582 1238.27C98.8525 1194.18 99.1438 1149.7 99.5322 1104.84L99.543 1104.03C99.8695 1084.11 99.9819 1064.19 99.8799 1044.28L99.8223 1035.74C99.6123 1010.12 100.138 984.344 101.393 958.409L101.448 957.373C104.003 913.535 133.756 875.937 175.923 863.419C205.264 854.708 234.845 848.105 264.637 843.683C294.738 839.214 325.422 837.034 356.619 837.034C377.203 837.034 397.695 838.758 418.04 842.155C439.624 845.563 460.707 851.116 481.113 858.949L481.114 858.948C481.268 859.007 481.422 859.066 481.576 859.125L481.575 859.126C502.217 867.014 521.856 877.124 540.216 889.586C560.212 902.832 578 918.925 593.127 937.775L594.605 939.637C601.896 948.916 608.347 958.647 614.004 968.745Z" fill="black"/>
<defs>
<linearGradient id="paint0_linear_58_694" x1="2044.74" y1="20.7195" x2="2044.74" y2="821.59" gradientUnits="userSpaceOnUse">
<stop offset="0.0673077" stop-color="#F9EEA7"/>
<stop offset="0.222146" stop-color="#FFC32B"/>
<stop offset="0.867392" stop-color="#FF6B2B"/>
<stop offset="1" stop-color="#F42703"/>
</linearGradient>
<linearGradient id="paint1_linear_58_694" x1="2044.74" y1="20.7195" x2="2044.74" y2="821.59" gradientUnits="userSpaceOnUse">
<stop offset="0.0673077" stop-color="#F9EEA7"/>
<stop offset="0.222146" stop-color="#FFC32B"/>
<stop offset="0.867392" stop-color="#FF6B2B"/>
<stop offset="1" stop-color="#F42703"/>
</linearGradient>
<linearGradient id="paint2_linear_58_694" x1="2044.74" y1="20.7195" x2="2044.74" y2="821.59" gradientUnits="userSpaceOnUse">
<stop offset="0.0673077" stop-color="#F9EEA7"/>
<stop offset="0.222146" stop-color="#FFC32B"/>
<stop offset="0.867392" stop-color="#FF6B2B"/>
<stop offset="1" stop-color="#F42703"/>
</linearGradient>
<linearGradient id="paint3_linear_58_694" x1="2044.74" y1="20.7195" x2="2044.74" y2="821.59" gradientUnits="userSpaceOnUse">
<stop offset="0.0673077" stop-color="#F9EEA7"/>
<stop offset="0.222146" stop-color="#FFC32B"/>
<stop offset="0.867392" stop-color="#FF6B2B"/>
<stop offset="1" stop-color="#F42703"/>
</linearGradient>
<linearGradient id="paint4_linear_58_694" x1="2044.74" y1="20.7195" x2="2044.74" y2="821.59" gradientUnits="userSpaceOnUse">
<stop offset="0.0673077" stop-color="#F9EEA7"/>
<stop offset="0.222146" stop-color="#FFC32B"/>
<stop offset="0.867392" stop-color="#FF6B2B"/>
<stop offset="1" stop-color="#F42703"/>
</linearGradient>
<linearGradient id="paint5_linear_58_694" x1="2044.74" y1="20.7195" x2="2044.74" y2="821.59" gradientUnits="userSpaceOnUse">
<stop offset="0.0673077" stop-color="#F9EEA7"/>
<stop offset="0.222146" stop-color="#FFC32B"/>
<stop offset="0.867392" stop-color="#FF6B2B"/>
<stop offset="1" stop-color="#F42703"/>
</linearGradient>
<linearGradient id="paint6_linear_58_694" x1="2044.74" y1="20.7195" x2="2044.74" y2="821.59" gradientUnits="userSpaceOnUse">
<stop offset="0.0673077" stop-color="#F9EEA7"/>
<stop offset="0.222146" stop-color="#FFC32B"/>
<stop offset="0.867392" stop-color="#FF6B2B"/>
<stop offset="1" stop-color="#F42703"/>
</linearGradient>
<linearGradient id="paint7_linear_58_694" x1="2016.42" y1="1367.48" x2="2016.42" y2="949.083" gradientUnits="userSpaceOnUse">
<stop stop-color="#44758C"/>
<stop offset="0.192308" stop-color="#89BDD8"/>
<stop offset="0.711538" stop-color="#C0E0ED"/>
<stop offset="0.836538" stop-color="#EEF7FB"/>
</linearGradient>
<linearGradient id="paint8_linear_58_694" x1="2016.42" y1="1367.48" x2="2016.42" y2="949.083" gradientUnits="userSpaceOnUse">
<stop stop-color="#44758C"/>
<stop offset="0.192308" stop-color="#89BDD8"/>
<stop offset="0.711538" stop-color="#C0E0ED"/>
<stop offset="0.836538" stop-color="#EEF7FB"/>
</linearGradient>
<linearGradient id="paint9_linear_58_694" x1="2016.42" y1="1367.48" x2="2016.42" y2="949.083" gradientUnits="userSpaceOnUse">
<stop stop-color="#44758C"/>
<stop offset="0.192308" stop-color="#89BDD8"/>
<stop offset="0.711538" stop-color="#C0E0ED"/>
<stop offset="0.836538" stop-color="#EEF7FB"/>
</linearGradient>
<linearGradient id="paint10_linear_58_694" x1="2016.42" y1="1367.48" x2="2016.42" y2="949.083" gradientUnits="userSpaceOnUse">
<stop stop-color="#44758C"/>
<stop offset="0.192308" stop-color="#89BDD8"/>
<stop offset="0.711538" stop-color="#C0E0ED"/>
<stop offset="0.836538" stop-color="#EEF7FB"/>
</linearGradient>
<linearGradient id="paint11_linear_58_694" x1="2016.42" y1="1367.48" x2="2016.42" y2="949.083" gradientUnits="userSpaceOnUse">
<stop stop-color="#44758C"/>
<stop offset="0.192308" stop-color="#89BDD8"/>
<stop offset="0.711538" stop-color="#C0E0ED"/>
<stop offset="0.836538" stop-color="#EEF7FB"/>
</linearGradient>
<linearGradient id="paint12_linear_58_694" x1="2016.42" y1="1367.48" x2="2016.42" y2="949.083" gradientUnits="userSpaceOnUse">
<stop stop-color="#44758C"/>
<stop offset="0.192308" stop-color="#89BDD8"/>
<stop offset="0.711538" stop-color="#C0E0ED"/>
<stop offset="0.836538" stop-color="#EEF7FB"/>
</linearGradient>
<linearGradient id="paint13_linear_58_694" x1="2016.42" y1="1367.48" x2="2016.42" y2="949.083" gradientUnits="userSpaceOnUse">
<stop stop-color="#44758C"/>
<stop offset="0.192308" stop-color="#89BDD8"/>
<stop offset="0.711538" stop-color="#C0E0ED"/>
<stop offset="0.836538" stop-color="#EEF7FB"/>
</linearGradient>
<linearGradient id="paint14_linear_58_694" x1="2016.42" y1="1367.48" x2="2016.42" y2="949.083" gradientUnits="userSpaceOnUse">
<stop stop-color="#44758C"/>
<stop offset="0.192308" stop-color="#89BDD8"/>
<stop offset="0.711538" stop-color="#C0E0ED"/>
<stop offset="0.836538" stop-color="#EEF7FB"/>
</linearGradient>
<linearGradient id="paint15_linear_58_694" x1="2016.42" y1="1367.48" x2="2016.42" y2="949.083" gradientUnits="userSpaceOnUse">
<stop stop-color="#44758C"/>
<stop offset="0.192308" stop-color="#89BDD8"/>
<stop offset="0.711538" stop-color="#C0E0ED"/>
<stop offset="0.836538" stop-color="#EEF7FB"/>
</linearGradient>
<linearGradient id="paint16_linear_58_694" x1="2016.42" y1="1367.48" x2="2016.42" y2="949.083" gradientUnits="userSpaceOnUse">
<stop stop-color="#44758C"/>
<stop offset="0.192308" stop-color="#89BDD8"/>
<stop offset="0.711538" stop-color="#C0E0ED"/>
<stop offset="0.836538" stop-color="#EEF7FB"/>
</linearGradient>
</defs>
</svg>
