<svg width="135" height="90" viewBox="0 0 135 90" fill="none" xmlns="http://www.w3.org/2000/svg">
<path d="M107.593 89.2965C106.637 89.2965 105.877 89.139 105.312 88.8241C104.747 88.5091 104.465 88.1019 104.465 87.6023C104.465 87.2765 104.573 87.0267 104.791 86.853C105.019 86.6684 105.306 86.5761 105.654 86.5761C105.849 86.5761 106.007 86.6032 106.126 86.6575C106.246 86.7118 106.365 86.7878 106.485 86.8856C106.572 86.9616 106.642 87.0159 106.697 87.0485C106.762 87.081 106.838 87.0973 106.925 87.0973C107.153 87.0973 107.267 87.0159 107.267 86.853C107.267 86.7009 107.207 86.5869 107.088 86.5109C106.968 86.424 106.762 86.3208 106.469 86.2014C106.197 86.0928 106.018 86.0168 105.931 85.9733C105.431 85.7344 105.062 85.452 104.823 85.1262C104.584 84.8004 104.465 84.4529 104.465 84.0837C104.465 83.671 104.611 83.28 104.905 82.9108C105.209 82.5307 105.632 82.2266 106.175 81.9986C106.729 81.7596 107.364 81.6402 108.081 81.6402C108.7 81.6402 109.26 81.7271 109.759 81.9008C110.27 82.0746 110.671 82.3135 110.965 82.6176C111.258 82.9108 111.404 83.2366 111.404 83.595C111.404 83.9316 111.296 84.1869 111.079 84.3606C110.872 84.5344 110.59 84.6213 110.232 84.6213C110.09 84.6213 109.976 84.6104 109.889 84.5887C109.813 84.5561 109.71 84.5072 109.58 84.4421C109.504 84.3986 109.422 84.3606 109.336 84.328C109.26 84.2955 109.173 84.2792 109.075 84.2792C108.988 84.2792 108.912 84.3117 108.847 84.3769C108.782 84.4312 108.749 84.5018 108.749 84.5887C108.749 84.7516 108.869 84.871 109.107 84.9471C109.737 85.1534 110.242 85.414 110.622 85.729C111.013 86.0439 111.209 86.4783 111.209 87.0322C111.209 87.7381 110.878 88.2919 110.215 88.6938C109.564 89.0956 108.689 89.2965 107.593 89.2965Z" fill="#56504D"/>
<path d="M102.419 89.2961C102.028 89.2961 101.735 89.1875 101.539 88.9703C101.355 88.7531 101.241 88.487 101.197 88.1721C101.154 87.8571 101.132 87.4499 101.132 86.9503C101.132 86.3096 101.045 85.8154 100.871 85.4679C100.698 85.1204 100.415 84.9466 100.024 84.9466C99.6659 84.9466 99.3944 85.1204 99.2098 85.4679C99.036 85.8046 98.9492 86.2716 98.9492 86.8689C98.9492 87.4444 98.9329 87.8788 98.9003 88.1721C98.8677 88.4653 98.7591 88.7259 98.5745 88.954C98.3899 89.1712 98.0858 89.2798 97.6622 89.2798C97.0432 89.2798 96.6088 88.8834 96.359 88.0906C96.1093 87.287 95.9844 86.3476 95.9844 85.2724C95.9844 82.666 96.5328 81.3628 97.6297 81.3628C97.9337 81.3628 98.1835 81.4389 98.379 81.5909C98.5745 81.7321 98.7102 81.9384 98.7863 82.2099C98.9274 82.0579 99.1446 81.9221 99.4379 81.8027C99.7419 81.6832 100.062 81.6235 100.399 81.6235C101.594 81.6235 102.484 82.0579 103.071 82.9267C103.668 83.7955 103.966 84.9738 103.966 86.4616C103.966 87.3413 103.852 88.0363 103.624 88.5467C103.396 89.0463 102.995 89.2961 102.419 89.2961Z" fill="#56504D"/>
<path d="M91.4011 89.3134C90.6192 89.3243 89.9187 89.1614 89.2997 88.8247C88.6916 88.4881 88.2137 88.0265 87.8662 87.4401C87.5295 86.8428 87.3503 86.1803 87.3286 85.4527C87.3178 84.7251 87.4861 84.0735 87.8336 83.4979C88.1811 82.9223 88.6644 82.4662 89.2834 82.1295C89.9133 81.7929 90.6192 81.6246 91.4011 81.6246C92.1613 81.6246 92.8455 81.7875 93.4537 82.1133C94.0727 82.4391 94.5614 82.8952 94.9198 83.4816C95.2781 84.0681 95.4682 84.7251 95.4899 85.4527C95.5008 86.1586 95.3324 86.8048 94.9849 87.3912C94.6374 87.9668 94.1487 88.4284 93.5188 88.7759C92.8998 89.1234 92.1939 89.3026 91.4011 89.3134ZM91.45 86.9351C91.7432 86.9351 91.9984 86.8211 92.2156 86.593C92.4328 86.3649 92.5414 86.0989 92.5414 85.7948C92.5414 85.4907 92.4328 85.2301 92.2156 85.0129C91.9984 84.7848 91.7432 84.6708 91.45 84.6708C91.1568 84.6708 90.9016 84.7848 90.6844 85.0129C90.4672 85.2301 90.3586 85.4907 90.3586 85.7948C90.3586 86.0989 90.4672 86.3649 90.6844 86.593C90.9016 86.8211 91.1568 86.9351 91.45 86.9351Z" fill="#56504D"/>
<path d="M84.9255 81.3955C84.3933 81.3955 83.9426 81.2055 83.5734 80.8254C83.2042 80.4344 83.0195 79.962 83.0195 79.4081C83.0195 78.8652 83.2042 78.4036 83.5734 78.0235C83.9426 77.6325 84.3933 77.4371 84.9255 77.4371C85.4467 77.4371 85.892 77.6325 86.2612 78.0235C86.6413 78.4036 86.8314 78.8652 86.8314 79.4081C86.8314 79.962 86.6413 80.4344 86.2612 80.8254C85.892 81.2055 85.4467 81.3955 84.9255 81.3955ZM84.9255 89.2962C84.4802 89.2962 84.149 89.1713 83.9318 88.9215C83.7254 88.6609 83.5843 88.2753 83.5082 87.7649C83.4431 87.2436 83.4105 86.5052 83.4105 85.5495C83.4105 84.7458 83.4485 84.1105 83.5245 83.6436C83.6114 83.1766 83.7634 82.8291 83.9806 82.601C84.1978 82.3729 84.5128 82.2589 84.9255 82.2589C85.3707 82.2589 85.6965 82.3892 85.9029 82.6499C86.1201 82.8996 86.2612 83.2852 86.3264 83.8064C86.4024 84.3169 86.4404 85.0499 86.4404 86.0056C86.4404 86.8092 86.397 87.4445 86.3101 87.9115C86.2341 88.3785 86.0875 88.726 85.8703 88.9541C85.6531 89.1822 85.3381 89.2962 84.9255 89.2962Z" fill="#56504D"/>
<path d="M82.855 82.2435C82.855 82.8082 82.589 83.1938 82.0568 83.4001C81.5247 83.5956 80.7971 83.6988 79.874 83.7096C79.8631 83.9811 79.8577 84.421 79.8577 85.0291C79.8577 85.6481 79.9011 86.088 79.988 86.3486C80.0423 86.5332 80.1237 86.6527 80.2323 86.707C80.3518 86.7613 80.5256 86.7993 80.7536 86.821C80.8296 86.8319 80.9111 86.8482 80.998 86.8699C81.0957 86.8807 81.2043 86.897 81.3238 86.9188C81.5735 86.9731 81.769 87.1088 81.9102 87.326C82.0514 87.5323 82.122 87.7984 82.122 88.1242C82.122 88.4935 81.9319 88.7812 81.5518 88.9876C81.1717 89.1939 80.6504 89.2971 79.988 89.2971C79.3798 89.2971 78.7988 89.1233 78.2449 88.7758C77.6911 88.4174 77.311 87.9396 77.1047 87.3423C76.8875 86.7016 76.7789 85.4907 76.7789 83.7096C76.0187 83.6879 75.4051 83.5902 74.9381 83.4164C74.482 83.2318 74.2539 82.906 74.2539 82.439C74.2539 81.8526 74.4711 81.4616 74.9055 81.2661C75.3399 81.0598 75.9644 80.9512 76.7789 80.9403C76.8114 80.0715 76.9472 79.3493 77.1861 78.7738C77.425 78.1873 77.854 77.8941 78.473 77.8941C79.1029 77.8941 79.5101 78.1656 79.6948 78.7086C79.8902 79.2516 79.9771 79.9955 79.9554 80.9403C80.9437 80.9295 81.6713 81.0055 82.1383 81.1684C82.6161 81.3313 82.855 81.6897 82.855 82.2435Z" fill="#56504D"/>
<path d="M70.9911 89.2802C70.296 89.2802 69.639 89.1119 69.02 88.7752C68.4118 88.4277 67.9231 87.9607 67.5539 87.3743C67.1846 86.7878 67 86.1308 67 85.4032C67 84.643 67.1792 83.9805 67.5376 83.4158C67.9068 82.8402 68.3901 82.4004 68.9874 82.0963C69.5955 81.7922 70.2471 81.6402 70.9422 81.6402C71.6046 81.6402 72.2019 81.7705 72.7341 82.0311C73.2662 82.2918 73.6789 82.6339 73.9721 83.0574C74.2653 83.4701 74.4119 83.9045 74.4119 84.3606C74.4119 84.7407 74.2925 85.0339 74.0536 85.2403C73.8255 85.4466 73.4834 85.5498 73.0273 85.5498C72.7884 85.5498 72.6038 85.5063 72.4734 85.4195C72.3431 85.3326 72.2074 85.2023 72.0662 85.0285C71.9359 84.8656 71.811 84.7461 71.6915 84.6701C71.5829 84.5832 71.4254 84.5398 71.2191 84.5398C70.9259 84.5398 70.6761 84.643 70.4698 84.8493C70.2634 85.0448 70.1603 85.3 70.1603 85.6149C70.1603 85.9407 70.258 86.2014 70.4535 86.3969C70.6598 86.5923 70.915 86.6901 71.2191 86.6901C71.4146 86.6901 71.5666 86.6629 71.6752 86.6086C71.7838 86.5543 71.9033 86.4675 72.0336 86.348C72.1856 86.2177 72.3268 86.1254 72.4572 86.0711C72.5875 86.0059 72.7775 85.9733 73.0273 85.9733C73.4726 85.9733 73.8147 86.0928 74.0536 86.3317C74.2925 86.5706 74.4119 86.8476 74.4119 87.1625C74.4119 87.5317 74.2653 87.8793 73.9721 88.2051C73.6898 88.5309 73.2879 88.7915 72.7667 88.987C72.2454 89.1825 71.6535 89.2802 70.9911 89.2802Z" fill="#56504D"/>
<path d="M62.5086 89.2965C61.7158 89.2965 61.0208 89.101 60.4235 88.71C59.8262 88.3082 59.3646 87.7544 59.0388 87.0485C58.7239 86.3317 58.5664 85.5063 58.5664 84.5724C58.5664 83.6601 58.713 82.9434 59.0062 82.4221C59.2995 81.9008 59.7067 81.6402 60.228 81.6402C61.1511 81.6402 61.6126 82.1126 61.6126 83.0574C61.6126 83.2529 61.6072 83.4267 61.5963 83.5787C61.5855 83.7199 61.5746 83.8448 61.5638 83.9534C61.5203 84.3878 61.4986 84.7353 61.4986 84.9959C61.4986 85.4738 61.5963 85.8376 61.7918 86.0874C61.9873 86.3371 62.2262 86.462 62.5086 86.462C62.8018 86.462 63.0407 86.3426 63.2253 86.1036C63.4208 85.8539 63.5186 85.4846 63.5186 84.9959C63.5186 84.6484 63.5023 84.328 63.4697 84.0348C63.4588 83.9371 63.448 83.7959 63.4371 83.6113C63.4263 83.4158 63.4208 83.2366 63.4208 83.0737C63.4208 82.118 63.8824 81.6402 64.8055 81.6402C65.3268 81.6402 65.7286 81.9008 66.0109 82.4221C66.3042 82.9325 66.4508 83.6493 66.4508 84.5724C66.4508 86.0168 66.1141 87.1679 65.4408 88.0259C64.7675 88.873 63.7901 89.2965 62.5086 89.2965Z" fill="#56504D"/>
<path d="M53.3926 89.2958C52.6216 89.2958 51.9374 89.1112 51.3401 88.7419C50.7537 88.3618 50.303 87.8731 49.988 87.2758C49.6731 86.6677 49.5156 86.0215 49.5156 85.3373C49.5156 84.5337 49.6785 83.8549 50.0043 83.3011C50.341 82.7364 50.77 82.3183 51.2912 82.0468C51.8234 81.7753 52.3935 81.6395 53.0017 81.6395C53.6098 81.6395 54.1528 81.7698 54.6307 82.0305C54.609 81.8024 54.5655 81.5581 54.5004 81.2974C54.4461 81.0368 54.4081 80.8739 54.3863 80.8087C54.2995 80.4721 54.2343 80.1897 54.1909 79.9616C54.1474 79.7336 54.1257 79.5055 54.1257 79.2775C54.1257 78.8213 54.2614 78.4738 54.5329 78.2349C54.8044 77.996 55.1302 77.8765 55.5103 77.8765C56.1185 77.8765 56.6126 78.1806 56.9927 78.7887C57.3728 79.3969 57.6443 80.1517 57.8072 81.0531C57.981 81.9544 58.0679 82.8667 58.0679 83.7898C58.0679 85.0387 57.7801 86.2713 57.2045 87.4876C56.6398 88.6931 55.3692 89.2958 53.3926 89.2958ZM53.4904 86.722C53.7836 86.722 54.0388 86.6134 54.256 86.3962C54.4732 86.1681 54.5818 85.9021 54.5818 85.598C54.5818 85.2939 54.4732 85.0278 54.256 84.7998C54.0388 84.5717 53.7836 84.4577 53.4904 84.4577C53.1972 84.4577 52.9365 84.5717 52.7085 84.7998C52.4913 85.0278 52.3827 85.2939 52.3827 85.598C52.3827 85.9021 52.4913 86.1681 52.7085 86.3962C52.9365 86.6134 53.1972 86.722 53.4904 86.722Z" fill="#56504D"/>
<path d="M44.9363 89.3134C44.1544 89.3243 43.4539 89.1614 42.8349 88.8247C42.2267 88.4881 41.7489 88.0265 41.4013 87.4401C41.0647 86.8428 40.8855 86.1803 40.8638 85.4527C40.8529 84.7251 41.0212 84.0735 41.3688 83.4979C41.7163 82.9223 42.1996 82.4662 42.8186 82.1295C43.4485 81.7929 44.1544 81.6246 44.9363 81.6246C45.6965 81.6246 46.3807 81.7875 46.9888 82.1133C47.6078 82.4391 48.0965 82.8952 48.4549 83.4816C48.8133 84.0681 49.0034 84.7251 49.0251 85.4527C49.0359 86.1586 48.8676 86.8048 48.5201 87.3912C48.1726 87.9668 47.6839 88.4284 47.054 88.7759C46.435 89.1234 45.7291 89.3026 44.9363 89.3134ZM44.9851 86.9351C45.2784 86.9351 45.5336 86.8211 45.7508 86.593C45.968 86.3649 46.0766 86.0989 46.0766 85.7948C46.0766 85.4907 45.968 85.2301 45.7508 85.0129C45.5336 84.7848 45.2784 84.6708 44.9851 84.6708C44.6919 84.6708 44.4367 84.7848 44.2195 85.0129C44.0023 85.2301 43.8937 85.4907 43.8937 85.7948C43.8937 86.0989 44.0023 86.3649 44.2195 86.593C44.4367 86.8211 44.6919 86.9351 44.9851 86.9351Z" fill="#56504D"/>
<path d="M35.2391 89.2973C34.5441 89.2973 34.0771 88.89 33.8382 88.0755C33.6101 87.261 33.4961 86.137 33.4961 84.7035C33.4961 84.0519 33.5232 83.5089 33.5775 83.0745C33.6427 82.6292 33.7893 82.2546 34.0174 81.9505C34.2563 81.6355 34.6201 81.4781 35.1088 81.4781C35.4129 81.4781 35.679 81.5487 35.907 81.6898C36.1459 81.831 36.298 82.0319 36.3631 82.2926C36.6021 82.0754 36.9116 81.9125 37.2917 81.8039C37.6718 81.6953 38.079 81.641 38.5134 81.641C38.8609 81.641 39.2139 81.7279 39.5723 81.9016C39.9415 82.0754 40.2456 82.3143 40.4845 82.6184C40.7343 82.9116 40.8592 83.232 40.8592 83.5795C40.8592 83.927 40.7343 84.2365 40.4845 84.508C40.2456 84.7687 39.9252 84.899 39.5234 84.899C39.3931 84.899 39.2682 84.8827 39.1487 84.8501C39.0401 84.8175 38.9424 84.7849 38.8555 84.7524C38.6383 84.6655 38.4645 84.622 38.3342 84.622C37.9107 84.622 37.536 84.7904 37.2102 85.127C36.8953 85.4528 36.7378 85.8764 36.7378 86.3977C36.7378 86.9732 36.7161 87.4511 36.6726 87.8312C36.6292 88.2113 36.4989 88.5534 36.2817 88.8574C36.0645 89.1507 35.717 89.2973 35.2391 89.2973Z" fill="#56504D"/>
<path d="M25.5664 89.312C24.6759 89.312 24.0677 88.8016 23.7419 87.7808C23.427 86.76 23.2695 85.4568 23.2695 83.8712C23.2695 82.8395 23.4542 81.873 23.8234 80.9716C24.2035 80.0593 24.7791 79.3263 25.5501 78.7724C26.3212 78.2077 27.2606 77.9253 28.3683 77.9253C29.2588 77.9253 30.0679 78.1154 30.7955 78.4955C31.5231 78.8647 32.0987 79.3969 32.5223 80.0919C32.9567 80.787 33.1739 81.5906 33.1739 82.5028C33.1739 83.5563 32.9621 84.4413 32.5385 85.1581C32.115 85.8749 31.5666 86.407 30.8933 86.7545C30.2199 87.102 29.5086 87.2758 28.7593 87.2758C28.1511 87.2758 27.5918 87.1726 27.0814 86.9663C27.1466 87.3138 27.1791 87.5799 27.1791 87.7645C27.1791 88.7962 26.6416 89.312 25.5664 89.312ZM28.5312 84.7509C28.9222 84.7509 29.2588 84.6097 29.5412 84.3273C29.8344 84.0341 29.981 83.6974 29.981 83.3173C29.981 82.9264 29.8344 82.5897 29.5412 82.3074C29.2588 82.0141 28.9222 81.8675 28.5312 81.8675C28.1511 81.8675 27.8144 82.0141 27.5212 82.3074C27.228 82.5897 27.0814 82.9264 27.0814 83.3173C27.0814 83.6974 27.228 84.0341 27.5212 84.3273C27.8144 84.6097 28.1511 84.7509 28.5312 84.7509Z" fill="#56504D"/>
<path d="M127.977 73.2958C126.875 73.2958 125.896 73.0319 125.042 72.5039C124.204 71.9604 123.559 71.2617 123.109 70.4077C122.659 69.5381 122.434 68.6142 122.434 67.6359C122.434 66.4869 122.667 65.5164 123.132 64.7245C123.614 63.917 124.227 63.3192 124.972 62.931C125.733 62.5428 126.548 62.3487 127.418 62.3487C128.288 62.3487 129.064 62.535 129.747 62.9077C129.716 62.5816 129.654 62.2322 129.561 61.8596C129.483 61.4869 129.429 61.254 129.398 61.1608C129.274 60.6795 129.18 60.2757 129.118 59.9497C129.056 59.6236 129.025 59.2975 129.025 58.9714C129.025 58.3192 129.219 57.8223 129.607 57.4807C129.996 57.1391 130.461 56.9683 131.005 56.9683C131.875 56.9683 132.581 57.4031 133.125 58.2726C133.668 59.1422 134.056 60.2214 134.289 61.5102C134.538 62.799 134.662 64.1034 134.662 65.4232C134.662 67.2089 134.25 68.9713 133.427 70.7104C132.62 72.434 130.803 73.2958 127.977 73.2958ZM128.117 69.6157C128.536 69.6157 128.901 69.4605 129.212 69.1499C129.522 68.8238 129.677 68.4434 129.677 68.0086C129.677 67.5738 129.522 67.1934 129.212 66.8673C128.901 66.5412 128.536 66.3782 128.117 66.3782C127.698 66.3782 127.325 66.5412 126.999 66.8673C126.688 67.1934 126.533 67.5738 126.533 68.0086C126.533 68.4434 126.688 68.8238 126.999 69.1499C127.325 69.4605 127.698 69.6157 128.117 69.6157Z" fill="#56504D"/>
<path d="M115.435 73.2963C114.224 73.2963 113.23 73.0246 112.453 72.4811C111.677 71.9221 111.289 71.1224 111.289 70.082C111.289 69.1814 111.685 68.4671 112.477 67.9392C113.269 67.4112 114.255 67.1473 115.435 67.1473C115.869 67.1473 116.273 67.1861 116.646 67.2637C117.034 67.3258 117.298 67.4035 117.438 67.4967C117.438 67.1085 117.275 66.7901 116.949 66.5417C116.623 66.2777 116.126 66.1457 115.458 66.1457C115.163 66.1457 114.922 66.169 114.736 66.2156C114.55 66.2622 114.348 66.3321 114.13 66.4252C113.913 66.5184 113.711 66.5883 113.525 66.6349C113.354 66.6814 113.121 66.7047 112.826 66.7047C112.329 66.7047 111.941 66.5805 111.661 66.3321C111.382 66.0681 111.242 65.6721 111.242 65.1442C111.242 64.5386 111.46 64.0262 111.894 63.6069C112.345 63.1877 112.904 62.8771 113.571 62.6753C114.239 62.4579 114.907 62.3492 115.574 62.3492C116.894 62.3492 117.997 62.5976 118.882 63.0945C119.783 63.5759 120.442 64.2203 120.862 65.0277C121.296 65.8352 121.514 66.728 121.514 67.7063C121.514 68.2342 121.467 68.7234 121.374 69.1737C121.296 69.624 121.188 69.9733 121.048 70.2218C121.265 70.4081 121.428 70.6255 121.537 70.874C121.661 71.1224 121.723 71.3786 121.723 71.6426C121.723 72.0929 121.568 72.4811 121.258 72.8072C120.963 73.1333 120.567 73.2963 120.07 73.2963C119.697 73.2963 119.394 73.2419 119.161 73.1333C118.928 73.0246 118.68 72.8538 118.416 72.6208C118.028 72.8538 117.601 73.0246 117.135 73.1333C116.685 73.2419 116.118 73.2963 115.435 73.2963ZM115.901 70.9438C116.227 70.9438 116.483 70.874 116.669 70.7342C116.871 70.5945 116.972 70.4236 116.972 70.2218C116.972 70.0199 116.871 69.8491 116.669 69.7094C116.483 69.5696 116.227 69.4997 115.901 69.4997C115.574 69.4997 115.31 69.5696 115.109 69.7094C114.922 69.8491 114.829 70.0199 114.829 70.2218C114.829 70.4236 114.922 70.5945 115.109 70.7342C115.31 70.874 115.574 70.9438 115.901 70.9438Z" fill="#56504D"/>
<path d="M102.068 73.296C100.065 73.296 98.6057 73.0553 97.6896 72.5739C96.7734 72.0926 96.1834 71.3239 95.9194 70.2681C95.6554 69.2122 95.5234 67.5662 95.5234 65.3302C95.5234 63.0631 95.6477 61.3784 95.8961 60.2759C96.1601 59.1579 96.7424 58.3349 97.643 57.807C98.5591 57.2635 100.011 56.9917 101.999 56.9917C103.194 56.9917 104.413 57.2713 105.655 57.8303C106.898 58.3737 107.946 59.2743 108.8 60.5321C109.654 61.7899 110.081 63.397 110.081 65.3535C110.081 67.2324 109.646 68.7696 108.776 69.9653C107.907 71.1454 106.859 71.9994 105.632 72.5274C104.405 73.0398 103.217 73.296 102.068 73.296ZM100.624 69.1966C101.121 69.2587 101.478 69.2898 101.696 69.2898C102.798 69.2898 103.652 68.9948 104.258 68.4047C104.863 67.8147 105.166 66.9994 105.166 65.9591C105.166 65.0274 104.871 64.3054 104.281 63.7929C103.691 63.265 102.86 63.001 101.789 63.001C101.385 63.001 100.997 63.0321 100.624 63.0942V69.1966Z" fill="#56504D"/>
<path d="M73.8799 64.0259C75.4016 64.0569 76.4963 64.22 77.164 64.515C77.8472 64.81 78.1889 65.3768 78.1889 66.2153C78.1889 67.0383 77.8395 67.5973 77.1407 67.8923C76.4575 68.1718 75.3861 68.3271 73.9265 68.3581L73.9498 70.1982C73.9653 70.4932 73.973 70.9047 73.973 71.4326C73.973 72.1003 73.7867 72.5739 73.414 72.8534C73.0414 73.1174 72.6066 73.2494 72.1097 73.2494C71.2557 73.2494 70.6346 72.8224 70.2464 71.9684C69.8582 71.1143 69.6175 69.8954 69.5243 68.3115C68.515 68.2339 67.7619 68.0398 67.265 67.7292C66.7837 67.4187 66.543 66.914 66.543 66.2153C66.543 65.5165 66.7837 65.0119 67.265 64.7013C67.7619 64.3752 68.515 64.1656 69.5243 64.0724C69.6175 62.5662 69.8426 61.3007 70.1998 60.2759C70.5569 59.251 71.1392 58.4514 71.9467 57.8768C72.7541 57.2868 73.8411 56.9917 75.2075 56.9917C76.0615 56.9917 76.7681 57.1936 77.3271 57.5973C77.9016 57.9855 78.1889 58.5523 78.1889 59.2976C78.1889 60.074 77.9482 60.6641 77.4668 61.0678C77.001 61.456 76.3566 61.7277 75.5336 61.883C74.9901 61.9917 74.5942 62.2324 74.3457 62.6051C74.0973 62.9622 73.942 63.4358 73.8799 64.0259ZM85.9683 64.0259C87.49 64.0569 88.5847 64.22 89.2524 64.515C89.9357 64.81 90.2773 65.3768 90.2773 66.2153C90.2773 67.0383 89.9279 67.5973 89.2291 67.8923C88.5459 68.1718 87.4745 68.3271 86.0149 68.3581L86.0382 70.1982C86.0537 70.4932 86.0615 70.9047 86.0615 71.4326C86.0615 72.1003 85.8751 72.5739 85.5025 72.8534C85.1298 73.1174 84.695 73.2494 84.1981 73.2494C83.3441 73.2494 82.723 72.8224 82.3348 71.9684C81.9466 71.1143 81.7059 69.8954 81.6127 68.3115C80.6034 68.2339 79.8503 68.0398 79.3534 67.7292C78.8721 67.4187 78.6314 66.914 78.6314 66.2153C78.6314 65.5165 78.8721 65.0119 79.3534 64.7013C79.8503 64.3752 80.6034 64.1656 81.6127 64.0724C81.7059 62.5662 81.9311 61.3007 82.2882 60.2759C82.6453 59.251 83.2276 58.4514 84.0351 57.8768C84.8425 57.2868 85.9295 56.9917 87.2959 56.9917C88.15 56.9917 88.8565 57.1936 89.4155 57.5973C89.99 57.9855 90.2773 58.5523 90.2773 59.2976C90.2773 60.074 90.0366 60.6641 89.5552 61.0678C89.0894 61.456 88.445 61.7277 87.622 61.883C87.0785 61.9917 86.6826 62.2324 86.4341 62.6051C86.1857 62.9622 86.0304 63.4358 85.9683 64.0259Z" fill="#56504D"/>
<path d="M59.7555 73.3201C58.3425 73.3356 57.0304 72.9862 55.8192 72.2719C54.6235 71.5576 53.6608 70.5794 52.931 69.3372C52.2167 68.0794 51.8441 66.6897 51.813 65.1679C51.7975 63.7083 52.1391 62.3574 52.8378 61.1152C53.5366 59.8729 54.4993 58.8869 55.726 58.1571C56.9527 57.4118 58.2959 57.0391 59.7555 57.0391C61.1841 57.0236 62.5039 57.3807 63.7151 58.1105C64.9418 58.8403 65.9123 59.8419 66.6266 61.1152C67.3408 62.3884 67.698 63.7937 67.698 65.331C67.698 66.7751 67.3408 68.1027 66.6266 69.3139C65.9123 70.525 64.9418 71.4878 63.7151 72.202C62.5039 72.9163 61.1841 73.289 59.7555 73.3201ZM59.8254 68.7782C60.5397 68.7782 61.1452 68.5219 61.6421 68.0095C62.1546 67.4971 62.403 66.8294 62.3875 66.0064C62.3875 65.1679 62.139 64.4925 61.6421 63.9801C61.1452 63.4676 60.5397 63.2114 59.8254 63.2114C59.1111 63.2114 58.5055 63.4676 58.0086 63.9801C57.5117 64.4925 57.2633 65.1679 57.2633 66.0064C57.2633 66.8294 57.5117 67.4971 58.0086 68.0095C58.5055 68.5219 59.1111 68.7782 59.8254 68.7782Z" fill="#56504D"/>
<path d="M36.977 73.2958C35.8746 73.2958 34.8963 73.0319 34.0423 72.5039C33.2038 71.9604 32.5594 71.2617 32.1091 70.4077C31.6587 69.5381 31.4336 68.6142 31.4336 67.6359C31.4336 66.4869 31.6665 65.5164 32.1323 64.7245C32.6137 63.917 33.2271 63.3192 33.9724 62.931C34.7333 62.5428 35.5485 62.3487 36.418 62.3487C37.2876 62.3487 38.064 62.535 38.7472 62.9077C38.7162 62.5816 38.654 62.2322 38.5609 61.8596C38.4832 61.4869 38.4289 61.254 38.3978 61.1608C38.2736 60.6795 38.1804 60.2757 38.1183 59.9497C38.0562 59.6236 38.0252 59.2975 38.0252 58.9714C38.0252 58.3192 38.2193 57.8223 38.6075 57.4807C38.9957 57.1391 39.4615 56.9683 40.005 56.9683C40.8745 56.9683 41.581 57.4031 42.1245 58.2726C42.668 59.1422 43.0562 60.2214 43.2891 61.5102C43.5375 62.799 43.6618 64.1034 43.6618 65.4232C43.6618 67.2089 43.2503 68.9713 42.4273 70.7104C41.6199 72.434 39.8031 73.2958 36.977 73.2958ZM37.1168 69.6157C37.536 69.6157 37.9009 69.4605 38.2115 69.1499C38.5221 68.8238 38.6773 68.4434 38.6773 68.0086C38.6773 67.5738 38.5221 67.1934 38.2115 66.8673C37.9009 66.5412 37.536 66.3782 37.1168 66.3782C36.6975 66.3782 36.3249 66.5412 35.9988 66.8673C35.6882 67.1934 35.5329 67.5738 35.5329 68.0086C35.5329 68.4434 35.6882 68.8238 35.9988 69.1499C36.3249 69.4605 36.6975 69.6157 37.1168 69.6157Z" fill="#56504D"/>
<path d="M27.9947 61.9993C27.2338 61.9993 26.5894 61.7276 26.0615 61.1841C25.5335 60.6251 25.2695 59.9496 25.2695 59.1577C25.2695 58.3813 25.5335 57.7214 26.0615 57.1779C26.5894 56.6189 27.2338 56.3394 27.9947 56.3394C28.74 56.3394 29.3766 56.6189 29.9046 57.1779C30.4481 57.7214 30.7198 58.3813 30.7198 59.1577C30.7198 59.9496 30.4481 60.6251 29.9046 61.1841C29.3766 61.7276 28.74 61.9993 27.9947 61.9993ZM27.9947 73.2958C27.358 73.2958 26.8844 73.1172 26.5739 72.7601C26.2788 72.3874 26.077 71.8362 25.9683 71.1064C25.8751 70.361 25.8285 69.3052 25.8285 67.9387C25.8285 66.7896 25.8829 65.8813 25.9916 65.2136C26.1158 64.5459 26.3332 64.049 26.6437 63.7229C26.9543 63.3968 27.4046 63.2338 27.9947 63.2338C28.6313 63.2338 29.0971 63.4201 29.3922 63.7928C29.7027 64.1499 29.9046 64.7011 29.9978 65.4465C30.1065 66.1763 30.1608 67.2244 30.1608 68.5909C30.1608 69.7399 30.0987 70.6483 29.9745 71.316C29.8658 71.9837 29.6561 72.4806 29.3456 72.8067C29.035 73.1328 28.5847 73.2958 27.9947 73.2958Z" fill="#56504D"/>
<path d="M17.8175 73.2963C16.6063 73.2963 15.6126 73.0246 14.8362 72.4811C14.0598 71.9221 13.6716 71.1224 13.6716 70.082C13.6716 69.1814 14.0675 68.4671 14.8595 67.9392C15.6514 67.4112 16.6374 67.1473 17.8175 67.1473C18.2523 67.1473 18.656 67.1861 19.0287 67.2637C19.4169 67.3258 19.6809 67.4035 19.8206 67.4967C19.8206 67.1085 19.6576 66.7901 19.3315 66.5417C19.0054 66.2777 18.5085 66.1457 17.8408 66.1457C17.5458 66.1457 17.3051 66.169 17.1188 66.2156C16.9324 66.2622 16.7306 66.3321 16.5132 66.4252C16.2958 66.5184 16.0939 66.5883 15.9076 66.6349C15.7368 66.6814 15.5039 66.7047 15.2088 66.7047C14.7119 66.7047 14.3238 66.5805 14.0443 66.3321C13.7648 66.0681 13.625 65.6721 13.625 65.1442C13.625 64.5386 13.8424 64.0262 14.2772 63.6069C14.7275 63.1877 15.2865 62.8771 15.9542 62.6753C16.6219 62.4579 17.2896 62.3492 17.9573 62.3492C19.2771 62.3492 20.3796 62.5976 21.2647 63.0945C22.1653 63.5759 22.8252 64.2203 23.2445 65.0277C23.6793 65.8352 23.8967 66.728 23.8967 67.7063C23.8967 68.2342 23.8501 68.7234 23.7569 69.1737C23.6793 69.624 23.5706 69.9733 23.4308 70.2218C23.6482 70.4081 23.8113 70.6255 23.92 70.874C24.0442 71.1224 24.1063 71.3786 24.1063 71.6426C24.1063 72.0929 23.951 72.4811 23.6405 72.8072C23.3454 73.1333 22.9495 73.2963 22.4526 73.2963C22.0799 73.2963 21.7771 73.2419 21.5442 73.1333C21.3113 73.0246 21.0628 72.8538 20.7989 72.6208C20.4107 72.8538 19.9836 73.0246 19.5178 73.1333C19.0675 73.2419 18.5007 73.2963 17.8175 73.2963ZM18.2834 70.9438C18.6094 70.9438 18.8656 70.874 19.052 70.7342C19.2538 70.5945 19.3548 70.4236 19.3548 70.2218C19.3548 70.0199 19.2538 69.8491 19.052 69.7094C18.8656 69.5696 18.6094 69.4997 18.2834 69.4997C17.9573 69.4997 17.6933 69.5696 17.4914 69.7094C17.3051 69.8491 17.2119 70.0199 17.2119 70.2218C17.2119 70.4236 17.3051 70.5945 17.4914 70.7342C17.6933 70.874 17.9573 70.9438 18.2834 70.9438Z" fill="#56504D"/>
<path d="M6.47511 73.296C4.9068 73.296 3.57917 72.9777 2.49222 72.341C1.40527 71.6888 0.690989 70.7184 0.349376 69.4296C0.209626 68.9016 0.116459 68.2572 0.0698753 67.4963C0.0232918 66.7355 0 65.765 0 64.5849C0 62.2712 0.248446 60.4312 0.745336 59.0647C1.25776 57.6827 2.26706 56.9917 3.77327 56.9917C4.70494 56.9917 5.43474 57.3178 5.96269 57.97C6.50617 58.6222 6.7779 59.4296 6.7779 60.3923C6.7779 61.4172 6.6925 62.5119 6.52169 63.6765C6.35089 64.8411 6.11021 66.2541 5.79965 67.9156C6.76238 67.605 7.81827 67.4498 8.96733 67.4498C10.163 67.4498 11.1568 67.6671 11.9487 68.1019C12.7561 68.5367 13.1598 69.2432 13.1598 70.2215C13.1598 71.1687 12.8493 71.8674 12.2282 72.3177C11.6071 72.768 10.854 73.0475 9.96887 73.1562C9.08379 73.2494 7.9192 73.296 6.47511 73.296Z" fill="#56504D"/>
<path d="M37.434 45.9005C36.9911 42.32 37.5451 34.679 44.5955 34.0884H77.1502L95.0898 37.8166C96.0373 41.1511 96.6498 46.6019 92.6927 49.8502C84.3157 56.7268 70.4712 47.82 70.4712 47.82C70.4712 47.82 60.837 51.7328 54.1188 52.7663C47.4007 53.7999 37.877 49.4811 37.434 45.9005Z" fill="black" fill-opacity="0.1"/>
<path d="M39.0285 30.5744C41.1571 27.7382 47.3428 25.7179 50.6795 25.1104C57.3552 22.9259 71.5807 18.5569 75.0776 18.5569C79.4488 18.5569 82.3607 18.1938 83.9983 21.8353C85.6359 25.4769 85.0911 29.4816 83.9983 32.0304C82.9055 34.5791 69.7953 42.5886 66.3385 44.7742C62.8818 46.9598 51.0128 49.6542 47.4691 48.7047C43.7169 47.6993 38.8469 42.9518 38.1173 39.8583C37.3877 36.7647 36.631 33.7689 39.0285 30.5744Z" fill="#ABA19F"/>
<path d="M75.0772 18.2451C77.2321 18.2451 79.1107 18.1512 80.6378 18.5274C81.4134 18.7185 82.1134 19.0333 82.7286 19.5479C83.3431 20.0619 83.8587 20.7629 84.2833 21.7071C85.965 25.4467 85.4035 29.5451 84.2852 32.1533C84.1233 32.5311 83.7603 32.9709 83.2872 33.4414C82.806 33.9199 82.1808 34.458 81.4581 35.0332C80.0119 36.1842 78.155 37.4982 76.2296 38.7969C72.3782 41.3945 68.2289 43.9481 66.505 45.0381C65.6073 45.6056 64.1873 46.1933 62.5274 46.7403C60.8614 47.2893 58.9322 47.8038 57.002 48.2198C55.0722 48.6357 53.1357 48.9547 51.4552 49.1094C49.7863 49.263 48.3322 49.2586 47.3888 49.0059C45.4417 48.4842 43.241 47.0073 41.4444 45.2901C39.6531 43.5778 38.1994 41.5656 37.8136 39.9297C37.0872 36.85 36.2843 33.7112 38.7794 30.3867C39.8967 28.8983 42.0424 27.6578 44.2804 26.7188C46.5182 25.7798 48.9057 25.1196 50.5938 24.8096C53.9349 23.7164 59.1579 22.0791 63.9854 20.7139C66.4017 20.0306 68.7224 19.4151 70.6593 18.9698C72.5846 18.527 74.1624 18.2452 75.0772 18.2451ZM80.4884 19.1338C79.0572 18.7812 77.2935 18.8692 75.0772 18.8692C74.2435 18.8693 72.7323 19.1336 70.7989 19.5782C68.8763 20.0202 66.567 20.6325 64.1554 21.3145C59.3326 22.6783 54.1115 24.3159 50.7765 25.4073L50.7559 25.4131L50.7354 25.417C49.0885 25.7169 46.7296 26.3675 44.5216 27.294C42.3007 28.2259 40.2898 29.4142 39.2784 30.7617C36.9784 33.8263 37.6881 36.6799 38.421 39.7871C38.7649 41.2447 40.1112 43.1529 41.8751 44.8389C43.634 46.5201 45.7448 47.9197 47.5499 48.4033C48.3783 48.6253 49.7366 48.6411 51.3975 48.4883C53.047 48.3365 54.9588 48.0225 56.8712 47.6104C58.7829 47.1983 60.6901 46.6886 62.3321 46.1475C63.9804 45.6043 65.3412 45.036 66.172 44.5108C67.9047 43.4152 72.0398 40.871 75.8809 38.2803C77.8016 36.9849 79.6422 35.6808 81.0694 34.5449C81.7833 33.9768 82.3893 33.4549 82.8477 32.9991C83.3142 32.5352 83.6008 32.1667 83.712 31.9073C84.7792 29.418 85.3073 25.5062 83.714 21.9629C83.3199 21.0867 82.8566 20.4683 82.3282 20.0264C81.8003 19.5848 81.1918 19.3071 80.4884 19.1338Z" fill="black"/>
<path d="M45.7585 33.9161C47.5057 32.8678 53.3748 32.3511 56.3167 31.3673C59.3547 30.5533 74.3429 22.0802 76.3437 22.0802C78.3444 22.0802 80.3516 21.3506 82.534 22.0802C84.7163 22.8098 83.082 27.1777 82.534 29.7265C81.986 32.2752 75.0693 36.6464 72.5205 38.284C69.9718 39.9215 52.4936 45.5671 49.2185 45.7487C45.9433 45.9303 43.1674 42.877 42.6617 40.6511C42.0423 37.9249 43.9928 34.9753 45.7585 33.9161Z" fill="#D5AF88"/>
<path d="M79.3432 21.4962C80.3859 21.4034 81.4831 21.3997 82.6332 21.7842C83.3014 22.0077 83.6684 22.5172 83.8334 23.1446C83.9942 23.7561 83.9705 24.4991 83.8666 25.2628C83.762 26.0318 83.571 26.8539 83.3745 27.6348C83.1759 28.4234 82.9748 29.1619 82.8393 29.7921C82.6824 30.5216 82.0902 31.327 81.3207 32.1251C80.5399 32.935 79.5308 33.7826 78.4672 34.5948C76.339 36.22 73.9608 37.7288 72.6889 38.546C72.0178 38.9772 70.4128 39.6492 68.3735 40.4083C66.3199 41.1727 63.7895 42.0391 61.2377 42.8594C58.6858 43.6798 56.1091 44.4552 53.9643 45.0372C51.833 45.6155 50.0935 46.013 49.2358 46.0606C47.4945 46.1572 45.9051 45.3932 44.6967 44.338C43.4915 43.2854 42.6283 41.9101 42.3579 40.7198C42.0272 39.2639 42.3859 37.7689 43.0395 36.5147C43.6924 35.262 44.6579 34.2125 45.5981 33.6485C46.0779 33.3607 46.812 33.1229 47.6557 32.9112C48.5078 32.6974 49.5059 32.5022 50.5327 32.3106C52.6008 31.9247 54.7737 31.5544 56.2182 31.0713L56.2358 31.0655C56.9599 30.8715 58.4362 30.2054 60.309 29.2921C62.1696 28.3847 64.3876 27.2515 66.5776 26.1407C68.7654 25.031 70.927 23.9435 72.6665 23.1338C73.5357 22.7293 74.3043 22.3914 74.9213 22.1544C75.2297 22.0359 75.5047 21.9409 75.7377 21.8751C75.9646 21.811 76.1739 21.7687 76.3432 21.7686C77.3278 21.7686 78.2776 21.591 79.3432 21.4962ZM82.435 22.376C81.4029 22.031 80.4046 22.0276 79.3979 22.1172C78.4142 22.2048 77.3592 22.3917 76.3432 22.3917C76.2625 22.3917 76.1208 22.4155 75.9077 22.4756C75.6998 22.5344 75.4438 22.6226 75.145 22.7374C74.5476 22.9668 73.7936 23.2969 72.9291 23.6993C71.2007 24.5038 69.0489 25.586 66.8598 26.6964C64.6732 27.8054 62.4498 28.9434 60.5834 29.8536C58.7294 30.7577 57.1928 31.4559 56.3979 31.669L56.3969 31.668C54.8997 32.1657 52.6772 32.545 50.6469 32.9239C49.6203 33.1155 48.6387 33.308 47.8071 33.5167C46.9675 33.7273 46.3132 33.9475 45.9194 34.1837C45.0939 34.6789 44.2012 35.6343 43.5922 36.8028C42.9842 37.9696 42.6777 39.3119 42.9663 40.5821C43.2016 41.6176 43.9789 42.8831 45.1069 43.8682C46.2315 44.8504 47.6681 45.5226 49.2016 45.4376C49.9816 45.3942 51.655 45.017 53.8012 44.4346C55.9342 43.8558 58.5009 43.084 61.0463 42.2657C63.5918 41.4474 66.1131 40.5836 68.1557 39.8233C70.2127 39.0576 71.7488 38.4091 72.352 38.0215C73.6289 37.2012 75.984 35.7056 78.0883 34.0987C79.1407 33.295 80.1229 32.47 80.8725 31.6924C81.6336 30.903 82.1117 30.206 82.229 29.6612C82.3675 29.017 82.5761 28.2525 82.77 27.4825C82.9657 26.7051 83.1488 25.9113 83.2485 25.1788C83.3488 24.441 83.3593 23.7959 83.2299 23.3038C83.1047 22.8276 82.8577 22.5174 82.435 22.376Z" fill="black"/>
<path d="M58.508 32.5786C56.1408 29.6667 52.1955 25.4176 50.4953 25.2955L57.2336 22.7467L74.1638 39.4985L68.155 43.5033C64.5167 35.1274 60.9506 35.5833 58.508 32.5786Z" fill="#65625B"/>
<path d="M38.1341 38.0815C38.6789 38.0815 38.9221 38.73 39.9533 39.4985L41.834 40.2671C42.6959 41.6442 41.834 43.5033 43.8121 45.1343C45.7901 46.7654 45.5739 47.2949 48.0438 47.6539C49.7802 47.8531 52.5913 47.821 54.6441 47.759C56.1161 47.7128 57.2152 47.6539 57.2152 47.6539C57.2152 47.6539 51.6044 49.4804 48.0438 48.8529C44.4832 48.2254 42.7184 45.1996 40.3091 43.7589C38.3894 42.611 38.1341 38.0815 38.1341 38.0815Z" fill="#65625B"/>
<path d="M72.0559 3.54207C72.8238 4.30994 79.6136 12.2001 82.9125 16.0492C84.7803 16.0492 87.8155 25.1633 91.0225 28.8287C94.2295 32.494 99.3796 40.7573 97.6182 45.0454C95.4164 50.4056 93.6329 51.6443 88.5483 51.6443C85.2752 51.6443 80.4641 50.5135 76.3667 47.782C72.6414 45.2984 65.3241 34.7401 61.7506 30.343C58.1772 25.9459 51.9933 14.2624 52.9532 9.7259C53.913 5.18936 62.2986 0.931692 65.3241 0.383675C68.3495 -0.164342 71.0961 2.58223 72.0559 3.54207Z" fill="#ABA19F"/>
<path d="M65.2683 0.0767093C66.89 -0.217038 68.4143 0.375266 69.6296 1.13237C70.8477 1.89124 71.7959 2.84162 72.2761 3.32183C73.0488 4.09453 79.7467 11.8778 83.0671 15.7515C83.3642 15.8019 83.6386 15.9898 83.8816 16.2222C84.1747 16.5026 84.4743 16.8963 84.7781 17.3599C85.3861 18.2881 86.0479 19.5571 86.7429 20.9224C88.1462 23.6791 89.6865 26.8281 91.2576 28.6236C92.878 30.4757 94.9832 33.4815 96.4646 36.5689C97.2054 38.1129 97.7956 39.6878 98.0876 41.1568C98.3789 42.622 98.3798 44.0121 97.907 45.1636C96.803 47.8513 95.7788 49.5736 94.3464 50.608C92.9073 51.647 91.1068 51.9566 88.5486 51.9566C85.2175 51.9566 80.3455 50.8091 76.1941 48.0416C75.228 47.3975 74.0498 46.2466 72.782 44.8365C71.5094 43.421 70.1291 41.7242 68.7566 39.9722C66.0001 36.4537 63.297 32.7402 61.5085 30.5396C59.7008 28.3152 57.2487 24.2712 55.3689 20.2183C54.4283 18.1903 53.6265 16.1503 53.1199 14.3267C52.6164 12.5143 52.3921 10.8724 52.6482 9.66167C52.9044 8.45075 53.6484 7.28427 54.6365 6.21733C55.6272 5.14756 56.882 4.15745 58.1931 3.29839C60.807 1.58575 63.6994 0.360952 65.2683 0.0767093ZM69.2995 1.66265C68.1453 0.943536 66.7833 0.436704 65.3796 0.690967C63.9231 0.954836 61.11 2.13265 58.5349 3.81987C57.2515 4.66076 56.0405 5.61965 55.0945 6.64116C54.1458 7.66554 53.4822 8.73325 53.2585 9.79058C53.0348 10.848 53.2228 12.3683 53.7204 14.1597C54.215 15.9399 55.0034 17.9463 55.9353 19.9556C57.8007 23.9776 60.2272 27.9734 61.9929 30.146C63.7779 32.3424 66.52 36.1067 69.2468 39.5875C70.616 41.3351 71.987 43.0194 73.2458 44.4195C74.5092 45.8247 75.6434 46.9244 76.5398 47.522C80.5829 50.2175 85.3334 51.3326 88.5486 51.3326C91.0742 51.3325 92.7072 51.022 93.9812 50.1021C95.2621 49.1771 96.2321 47.5997 97.3298 44.9273C97.7375 43.9348 97.7545 42.6835 97.4753 41.2789C97.1969 39.8781 96.6294 38.3543 95.9021 36.8384C94.4471 33.806 92.3743 30.847 90.7878 29.0337C89.1519 27.1639 87.5702 23.9223 86.1872 21.2056C85.4894 19.8348 84.842 18.5967 84.2556 17.7017C83.962 17.2536 83.6928 16.9057 83.4499 16.6734C83.1988 16.4332 83.0228 16.361 82.9128 16.3609H82.7693L82.6755 16.2525C79.3686 12.3941 72.5923 4.51891 71.8357 3.76226C71.356 3.28262 70.4509 2.37998 69.2995 1.66265Z" fill="#010101"/>
<path d="M81.3214 44.0476C78.5699 42.055 70.9772 30.7525 69.1062 25.9306C72.5229 30.3378 77.6231 39.9715 82.0802 43.3277C84.5372 45.1778 88.9969 46.9952 92.0872 46.0127C96.3295 44.6638 96.4472 40.8179 96.4975 39.1738L96.4982 39.1523C96.2612 38.2094 95.8993 36.745 96.3481 38.4312C96.4081 38.6567 96.4585 38.8983 96.4982 39.1523C96.8295 41.2721 96.1768 43.8784 94.422 45.6333C92.4569 47.5983 85.965 47.4103 81.3214 44.0476Z" fill="#62615C"/>
<path d="M69.1042 25.9316L69.1091 25.9286C70.8175 28.1324 72.9467 31.6429 75.2058 35.0214C77.465 38.4002 79.8537 41.6473 82.0818 43.3251C83.3099 44.2499 85.0394 45.1667 86.8474 45.7294C88.6554 46.2921 90.5424 46.5007 92.0866 46.0097C94.2064 45.3356 95.2953 44.0377 95.8611 42.7031C96.4268 41.3681 96.4697 39.9958 96.4948 39.1738V39.1533L96.1628 37.8066C96.1468 37.7383 96.136 37.69 96.1325 37.6699C96.1318 37.6654 96.1315 37.6619 96.1316 37.6601L96.1345 37.6562C96.1357 37.6561 96.1371 37.6569 96.1374 37.6572L96.1384 37.6581L96.1394 37.6601C96.1416 37.6651 96.1458 37.6781 96.1521 37.6992C96.1776 37.7844 96.2392 38.0093 96.3513 38.4306C96.4113 38.6562 96.462 38.8983 96.5017 39.1523C96.8329 41.2729 96.1799 43.8802 94.4245 45.6357C93.9327 46.1275 93.1576 46.4841 92.1999 46.6904C91.242 46.8966 90.1005 46.9526 88.8757 46.8417C86.4262 46.62 83.6423 45.7314 81.32 44.0497C80.6318 43.5513 79.6404 42.4717 78.5124 41.0566C77.3844 39.6413 76.1186 37.8905 74.8806 36.0517C72.4047 32.3744 70.0399 28.3428 69.1042 25.9316ZM69.1179 25.9521C70.0592 28.3652 72.4182 32.3828 74.8864 36.0488C76.1243 37.8873 77.3895 39.6377 78.5173 41.0527C79.6451 42.4676 80.6355 43.5469 81.323 44.0449C83.6442 45.7258 86.4281 46.6132 88.8767 46.8349C90.1007 46.9457 91.241 46.8905 92.198 46.6845C93.1552 46.4784 93.929 46.1215 94.4196 45.6308C96.1628 43.8876 96.8167 41.3041 96.4997 39.1923C96.4745 40.0163 96.429 41.3787 95.8669 42.705C95.3006 44.0413 94.2104 45.3408 92.0886 46.0156C90.5426 46.5071 88.654 46.2981 86.8454 45.7353C85.0369 45.1724 83.3076 44.2552 82.0788 43.33C79.8499 41.6516 77.4601 38.404 75.2009 35.0253C72.948 31.656 70.8237 28.1567 69.1179 25.9521ZM96.1687 37.8056C96.2278 38.0582 96.3611 38.5906 96.4743 39.0419C96.4378 38.8286 96.3966 38.6238 96.3454 38.4316C96.2334 38.0108 96.1717 37.7864 96.1462 37.7011L96.1687 37.8056Z" fill="black"/>
<path d="M66.5464 20.894C65.1714 17.8718 61.598 13.199 61.598 8.25066C61.598 3.3023 63.7965 1.93063 65.1714 1.655C66.5464 1.37937 69.8409 2.47865 71.9033 5.36465C73.9657 8.25066 79.8771 15.8094 80.7008 15.8094C81.3597 15.8094 82.348 16.5423 82.7599 16.9087C80.2449 17.4589 74.5527 19.2188 71.9033 21.857C69.2769 24.4724 68.8821 25.6829 69.0137 25.9712L69.0173 25.9785C69.0161 25.9761 69.0149 25.9737 69.0137 25.9712L66.5464 20.894Z" fill="#F7EFD8"/>
<path d="M65.1097 1.34932C65.8928 1.19233 67.1342 1.42868 68.4144 2.04268C69.7088 2.66349 71.0919 3.69212 72.1576 5.1833C73.1842 6.61997 75.1731 9.22629 77.0081 11.4724C77.9259 12.5956 78.8021 13.6245 79.4974 14.3708C79.8457 14.7446 80.1432 15.0423 80.3753 15.2438C80.4917 15.3449 80.5848 15.4157 80.6546 15.4597C80.6962 15.4859 80.7191 15.4958 80.7259 15.4987L80.7005 15.4978C81.1218 15.4978 81.5977 15.7217 81.9837 15.9538C82.3838 16.1943 82.7492 16.4816 82.9671 16.6755C83.0548 16.7535 83.0915 16.8745 83.0619 16.988C83.0321 17.1013 82.941 17.1885 82.8265 17.2136C81.5847 17.4853 79.5501 18.0581 77.4994 18.8894C75.4414 19.7236 73.403 20.8037 72.1234 22.0778C70.8196 23.3761 70.0828 24.3138 69.6898 24.9509C69.4931 25.2698 69.3874 25.5048 69.3382 25.6657C69.2958 25.8047 69.3049 25.8565 69.3031 25.8552C69.3683 26.006 69.3058 26.183 69.1576 26.2575C69.005 26.334 68.819 26.2734 68.7406 26.1218C68.7394 26.1195 68.7378 26.1172 68.7367 26.1149L68.7328 26.1071L66.266 21.03L66.2621 21.0231C65.9249 20.2821 65.4514 19.4355 64.9212 18.4919C64.3936 17.5528 63.8137 16.5234 63.2767 15.4323C62.2042 13.2531 61.2865 10.7963 61.2865 8.25069C61.2865 5.73204 61.8456 4.0814 62.6165 3.01729C63.3893 1.95067 64.355 1.50072 65.1097 1.34932ZM61.9095 8.25069C61.9095 10.6534 62.7783 13.0072 63.8363 15.1569C64.3645 16.2302 64.9362 17.2447 65.4652 18.1862C65.9916 19.1232 66.4801 19.9944 66.8304 20.7644L68.9164 25.0583C68.9818 24.9257 69.0614 24.7803 69.1585 24.6228C69.5866 23.9288 70.3605 22.9533 71.683 21.6364C73.0528 20.2724 75.1858 19.1531 77.265 18.3103C79.0335 17.5934 80.7896 17.0664 82.0589 16.7526C81.9347 16.6636 81.801 16.5723 81.6624 16.489C81.2867 16.263 80.9381 16.1218 80.7005 16.1218C80.5532 16.1217 80.4159 16.0468 80.3226 15.988C80.2144 15.9199 80.094 15.8256 79.9662 15.7146C79.7094 15.4916 79.3942 15.1753 79.0404 14.7956C78.3313 14.0346 77.4455 12.9938 76.5247 11.8669C74.6827 9.61222 72.6855 6.99499 71.6497 5.54561C70.653 4.15089 69.3571 3.18658 68.1449 2.60518C66.9186 2.01701 65.8245 1.84203 65.2328 1.96065C64.6127 2.08495 63.7915 2.45863 63.1214 3.3835C62.4494 4.31123 61.9095 5.82106 61.9095 8.25069Z" fill="#010101"/>
<path d="M66.1871 11.454C64.641 11.249 64.6847 13.1715 64.8998 14.1584C62.4515 10.4228 63.4827 5.9122 64.8998 4.36867C66.3168 2.82515 68.8948 5.39985 69.7963 5.9122C70.5175 6.32208 75.765 12.9553 78.2986 16.2208L74.1772 17.894C73.7913 16.4769 68.1198 11.7102 66.1871 11.454Z" fill="#B48D66"/>
<path d="M66.9584 20.9848C66.8935 20.8333 68.2794 20.5937 67.6795 18.2914C65.2312 14.5558 63.4866 12.487 64.9037 10.9435C65.4819 10.3136 72.7186 14.5169 74.2232 17.925C74.2232 17.925 70.5389 19.0653 69.2101 21.1418C69.2101 21.1418 70.9777 19.7212 71.6463 19.3237C72.315 18.9262 73.4551 18.4378 73.4551 18.4378L73.6233 20.0619C73.6233 20.0619 71.7392 21.6389 70.7235 22.8304C69.9603 23.7257 68.9517 25.2667 68.9517 25.2667C68.767 24.9887 67.1799 21.5016 66.9584 20.9848Z" fill="#E7D3BA"/>
</svg>
